<mxfile host="app.diagrams.net" agent="Mozilla/5.0 (Windows NT 10.0; Win64; x64) AppleWebKit/537.36 (KHTML, like Gecko) Chrome/130.0.0.0 Safari/537.36" version="24.8.3" pages="3">
  <diagram name="Page-1" id="RAsUTVi-IZH4NpgtAhdM">
    <mxGraphModel dx="1050" dy="603" grid="1" gridSize="10" guides="1" tooltips="1" connect="1" arrows="1" fold="1" page="1" pageScale="1" pageWidth="850" pageHeight="1100" math="0" shadow="0">
      <root>
        <mxCell id="0" />
        <mxCell id="1" parent="0" />
        <mxCell id="fzreVTaqCBlUkeBc7WwT-4" style="edgeStyle=orthogonalEdgeStyle;rounded=0;orthogonalLoop=1;jettySize=auto;html=1;exitX=0.5;exitY=1;exitDx=0;exitDy=0;entryX=0.5;entryY=0;entryDx=0;entryDy=0;" edge="1" parent="1" source="fzreVTaqCBlUkeBc7WwT-1" target="fzreVTaqCBlUkeBc7WwT-2">
          <mxGeometry relative="1" as="geometry" />
        </mxCell>
        <mxCell id="fzreVTaqCBlUkeBc7WwT-1" value="&lt;b&gt;START&lt;/b&gt;" style="ellipse;whiteSpace=wrap;html=1;" vertex="1" parent="1">
          <mxGeometry x="365" y="40" width="120" height="50" as="geometry" />
        </mxCell>
        <mxCell id="fzreVTaqCBlUkeBc7WwT-9" style="edgeStyle=orthogonalEdgeStyle;rounded=0;orthogonalLoop=1;jettySize=auto;html=1;exitX=0.5;exitY=1;exitDx=0;exitDy=0;entryX=0.5;entryY=0;entryDx=0;entryDy=0;" edge="1" parent="1" source="fzreVTaqCBlUkeBc7WwT-2" target="fzreVTaqCBlUkeBc7WwT-3">
          <mxGeometry relative="1" as="geometry" />
        </mxCell>
        <mxCell id="fzreVTaqCBlUkeBc7WwT-2" value="GET num" style="shape=parallelogram;perimeter=parallelogramPerimeter;whiteSpace=wrap;html=1;fixedSize=1;" vertex="1" parent="1">
          <mxGeometry x="365" y="130" width="120" height="40" as="geometry" />
        </mxCell>
        <mxCell id="fzreVTaqCBlUkeBc7WwT-10" style="edgeStyle=orthogonalEdgeStyle;rounded=0;orthogonalLoop=1;jettySize=auto;html=1;exitX=0.5;exitY=1;exitDx=0;exitDy=0;entryX=0.5;entryY=0;entryDx=0;entryDy=0;" edge="1" parent="1" source="fzreVTaqCBlUkeBc7WwT-3" target="fzreVTaqCBlUkeBc7WwT-5">
          <mxGeometry relative="1" as="geometry" />
        </mxCell>
        <mxCell id="fzreVTaqCBlUkeBc7WwT-3" value="firstLastInteger = extractFirstLSD(num)" style="shape=process;whiteSpace=wrap;html=1;backgroundOutline=1;" vertex="1" parent="1">
          <mxGeometry x="280" y="200" width="290" height="40" as="geometry" />
        </mxCell>
        <mxCell id="fzreVTaqCBlUkeBc7WwT-11" style="edgeStyle=orthogonalEdgeStyle;rounded=0;orthogonalLoop=1;jettySize=auto;html=1;exitX=0.5;exitY=1;exitDx=0;exitDy=0;entryX=0.5;entryY=0;entryDx=0;entryDy=0;" edge="1" parent="1" source="fzreVTaqCBlUkeBc7WwT-5" target="fzreVTaqCBlUkeBc7WwT-6">
          <mxGeometry relative="1" as="geometry" />
        </mxCell>
        <mxCell id="fzreVTaqCBlUkeBc7WwT-5" value="secondLastInteger = extractSecondLSD(num)" style="shape=process;whiteSpace=wrap;html=1;backgroundOutline=1;" vertex="1" parent="1">
          <mxGeometry x="270" y="270" width="310" height="40" as="geometry" />
        </mxCell>
        <mxCell id="fzreVTaqCBlUkeBc7WwT-12" style="edgeStyle=orthogonalEdgeStyle;rounded=0;orthogonalLoop=1;jettySize=auto;html=1;exitX=0.5;exitY=1;exitDx=0;exitDy=0;entryX=0.5;entryY=0;entryDx=0;entryDy=0;" edge="1" parent="1" source="fzreVTaqCBlUkeBc7WwT-6" target="fzreVTaqCBlUkeBc7WwT-7">
          <mxGeometry relative="1" as="geometry" />
        </mxCell>
        <mxCell id="fzreVTaqCBlUkeBc7WwT-6" value="sum = sumDigits(firstLastInteger, secondLastInteger)" style="shape=process;whiteSpace=wrap;html=1;backgroundOutline=1;" vertex="1" parent="1">
          <mxGeometry x="270" y="340" width="310" height="40" as="geometry" />
        </mxCell>
        <mxCell id="fzreVTaqCBlUkeBc7WwT-7" value="DISPLAY firstLastInteger, secondLastInteger, sum" style="shape=parallelogram;perimeter=parallelogramPerimeter;whiteSpace=wrap;html=1;fixedSize=1;" vertex="1" parent="1">
          <mxGeometry x="320" y="410" width="210" height="40" as="geometry" />
        </mxCell>
        <mxCell id="fzreVTaqCBlUkeBc7WwT-8" value="END" style="strokeWidth=2;html=1;shape=mxgraph.flowchart.terminator;whiteSpace=wrap;" vertex="1" parent="1">
          <mxGeometry x="375" y="480" width="100" height="40" as="geometry" />
        </mxCell>
        <mxCell id="fzreVTaqCBlUkeBc7WwT-13" style="edgeStyle=orthogonalEdgeStyle;rounded=0;orthogonalLoop=1;jettySize=auto;html=1;exitX=0.5;exitY=1;exitDx=0;exitDy=0;entryX=0.5;entryY=0;entryDx=0;entryDy=0;entryPerimeter=0;" edge="1" parent="1" source="fzreVTaqCBlUkeBc7WwT-7" target="fzreVTaqCBlUkeBc7WwT-8">
          <mxGeometry relative="1" as="geometry" />
        </mxCell>
        <mxCell id="fzreVTaqCBlUkeBc7WwT-17" style="edgeStyle=orthogonalEdgeStyle;rounded=0;orthogonalLoop=1;jettySize=auto;html=1;exitX=0.5;exitY=1;exitDx=0;exitDy=0;entryX=0.5;entryY=0;entryDx=0;entryDy=0;" edge="1" parent="1" source="fzreVTaqCBlUkeBc7WwT-14" target="fzreVTaqCBlUkeBc7WwT-16">
          <mxGeometry relative="1" as="geometry" />
        </mxCell>
        <mxCell id="fzreVTaqCBlUkeBc7WwT-14" value="&lt;b&gt;extractFirstLSD(num)&lt;/b&gt;" style="ellipse;whiteSpace=wrap;html=1;" vertex="1" parent="1">
          <mxGeometry x="42.5" y="40" width="150" height="50" as="geometry" />
        </mxCell>
        <mxCell id="fzreVTaqCBlUkeBc7WwT-15" value="RETURN" style="strokeWidth=2;html=1;shape=mxgraph.flowchart.terminator;whiteSpace=wrap;" vertex="1" parent="1">
          <mxGeometry x="67.5" y="180" width="100" height="40" as="geometry" />
        </mxCell>
        <mxCell id="fzreVTaqCBlUkeBc7WwT-16" value="COMPUTE num % 10" style="rounded=0;whiteSpace=wrap;html=1;" vertex="1" parent="1">
          <mxGeometry x="40" y="120" width="155" height="30" as="geometry" />
        </mxCell>
        <mxCell id="fzreVTaqCBlUkeBc7WwT-18" style="edgeStyle=orthogonalEdgeStyle;rounded=0;orthogonalLoop=1;jettySize=auto;html=1;exitX=0.5;exitY=1;exitDx=0;exitDy=0;entryX=0.5;entryY=0;entryDx=0;entryDy=0;entryPerimeter=0;" edge="1" parent="1" source="fzreVTaqCBlUkeBc7WwT-16" target="fzreVTaqCBlUkeBc7WwT-15">
          <mxGeometry relative="1" as="geometry" />
        </mxCell>
        <mxCell id="fzreVTaqCBlUkeBc7WwT-22" style="edgeStyle=orthogonalEdgeStyle;rounded=0;orthogonalLoop=1;jettySize=auto;html=1;exitX=0.5;exitY=1;exitDx=0;exitDy=0;entryX=0.5;entryY=0;entryDx=0;entryDy=0;" edge="1" parent="1" source="fzreVTaqCBlUkeBc7WwT-19" target="fzreVTaqCBlUkeBc7WwT-20">
          <mxGeometry relative="1" as="geometry" />
        </mxCell>
        <mxCell id="fzreVTaqCBlUkeBc7WwT-19" value="&lt;b&gt;extractSecondLSD(num)&lt;/b&gt;" style="ellipse;whiteSpace=wrap;html=1;" vertex="1" parent="1">
          <mxGeometry x="33.75" y="290" width="167.5" height="50" as="geometry" />
        </mxCell>
        <mxCell id="fzreVTaqCBlUkeBc7WwT-20" value="COMPUTE&amp;nbsp;&lt;div&gt;((num % 100) - (num % 10)) / 10&lt;/div&gt;" style="rounded=0;whiteSpace=wrap;html=1;" vertex="1" parent="1">
          <mxGeometry x="22.5" y="370" width="190" height="50" as="geometry" />
        </mxCell>
        <mxCell id="fzreVTaqCBlUkeBc7WwT-21" value="RETURN" style="strokeWidth=2;html=1;shape=mxgraph.flowchart.terminator;whiteSpace=wrap;" vertex="1" parent="1">
          <mxGeometry x="67.5" y="460" width="100" height="40" as="geometry" />
        </mxCell>
        <mxCell id="fzreVTaqCBlUkeBc7WwT-23" style="edgeStyle=orthogonalEdgeStyle;rounded=0;orthogonalLoop=1;jettySize=auto;html=1;exitX=0.5;exitY=1;exitDx=0;exitDy=0;entryX=0.5;entryY=0;entryDx=0;entryDy=0;entryPerimeter=0;" edge="1" parent="1" source="fzreVTaqCBlUkeBc7WwT-20" target="fzreVTaqCBlUkeBc7WwT-21">
          <mxGeometry relative="1" as="geometry" />
        </mxCell>
        <mxCell id="fzreVTaqCBlUkeBc7WwT-27" style="edgeStyle=orthogonalEdgeStyle;rounded=0;orthogonalLoop=1;jettySize=auto;html=1;exitX=0.5;exitY=1;exitDx=0;exitDy=0;entryX=0.5;entryY=0;entryDx=0;entryDy=0;" edge="1" parent="1" source="fzreVTaqCBlUkeBc7WwT-24" target="fzreVTaqCBlUkeBc7WwT-25">
          <mxGeometry relative="1" as="geometry" />
        </mxCell>
        <mxCell id="fzreVTaqCBlUkeBc7WwT-24" value="&lt;b&gt;sumDigits(firstLastInteger, secondLastInteger)&lt;/b&gt;" style="ellipse;whiteSpace=wrap;html=1;" vertex="1" parent="1">
          <mxGeometry x="19.380000000000003" y="560" width="196.25" height="70" as="geometry" />
        </mxCell>
        <mxCell id="fzreVTaqCBlUkeBc7WwT-25" value="COMPUTE&amp;nbsp;&lt;span style=&quot;background-color: initial;&quot;&gt;x + y&lt;/span&gt;" style="rounded=0;whiteSpace=wrap;html=1;" vertex="1" parent="1">
          <mxGeometry x="52.5" y="660" width="130" height="40" as="geometry" />
        </mxCell>
        <mxCell id="fzreVTaqCBlUkeBc7WwT-26" value="RETURN" style="strokeWidth=2;html=1;shape=mxgraph.flowchart.terminator;whiteSpace=wrap;" vertex="1" parent="1">
          <mxGeometry x="67.51" y="740" width="100" height="40" as="geometry" />
        </mxCell>
        <mxCell id="fzreVTaqCBlUkeBc7WwT-28" style="edgeStyle=orthogonalEdgeStyle;rounded=0;orthogonalLoop=1;jettySize=auto;html=1;exitX=0.5;exitY=1;exitDx=0;exitDy=0;entryX=0.5;entryY=0;entryDx=0;entryDy=0;entryPerimeter=0;" edge="1" parent="1" source="fzreVTaqCBlUkeBc7WwT-25" target="fzreVTaqCBlUkeBc7WwT-26">
          <mxGeometry relative="1" as="geometry" />
        </mxCell>
        <mxCell id="fzreVTaqCBlUkeBc7WwT-29" value="&lt;h1 style=&quot;margin-top: 0px;&quot;&gt;&lt;u&gt;main():&lt;/u&gt;&lt;/h1&gt;&lt;h1 style=&quot;margin-top: 0px;&quot;&gt;START&lt;/h1&gt;&lt;p&gt;&lt;span style=&quot;white-space: pre;&quot;&gt;&#x9;&lt;/span&gt;1. GET num&lt;br&gt;&lt;/p&gt;&lt;p&gt;&lt;span style=&quot;white-space: pre;&quot;&gt;&#x9;&lt;/span&gt;2. CALL firstLastInteger = extractFirstLSD(num)&lt;br&gt;&lt;/p&gt;&lt;p&gt;&lt;span style=&quot;white-space: pre;&quot;&gt;&#x9;&lt;/span&gt;3. CALL secondLastInteger = extractSecondLSD(num)&lt;br&gt;&lt;/p&gt;&lt;p&gt;&lt;span style=&quot;white-space: pre;&quot;&gt;&#x9;&lt;/span&gt;4. CALL sum = sumDigits(firstLastInteger, secondLastInteger)&lt;br&gt;&lt;/p&gt;&lt;p&gt;&lt;span style=&quot;white-space: pre;&quot;&gt;&#x9;&lt;/span&gt;5. DISPLAY firstLastInteger, secondLastInteger, sum&lt;br&gt;&lt;/p&gt;&lt;h1 style=&quot;margin-top: 0px;&quot;&gt;STOP&lt;/h1&gt;" style="text;html=1;whiteSpace=wrap;overflow=hidden;rounded=0;" vertex="1" parent="1">
          <mxGeometry x="250" y="530" width="380" height="260" as="geometry" />
        </mxCell>
        <mxCell id="fzreVTaqCBlUkeBc7WwT-30" value="&lt;h1 style=&quot;margin-top: 0px; font-size: 13px;&quot;&gt;&lt;u&gt;&lt;font style=&quot;font-size: 13px;&quot;&gt;extractFirstLSD(num):&lt;/font&gt;&lt;/u&gt;&lt;/h1&gt;&lt;h1 style=&quot;margin-top: 0px; font-size: 13px;&quot;&gt;START&lt;/h1&gt;&lt;p&gt;&lt;span style=&quot;white-space: pre;&quot;&gt;&#x9;&lt;/span&gt;1. COMPUTE num % 10&lt;/p&gt;&lt;h1 style=&quot;margin-top: 0px;&quot;&gt;RETURN&lt;/h1&gt;" style="text;html=1;whiteSpace=wrap;overflow=hidden;rounded=0;" vertex="1" parent="1">
          <mxGeometry x="19.38" y="810" width="395" height="160" as="geometry" />
        </mxCell>
        <mxCell id="fzreVTaqCBlUkeBc7WwT-31" value="&lt;h1 style=&quot;margin-top: 0px; line-height: 70%;&quot;&gt;&lt;u&gt;&lt;font style=&quot;font-size: 13px;&quot;&gt;extractSecondLSD(num):&lt;/font&gt;&lt;/u&gt;&lt;/h1&gt;&lt;h1 style=&quot;margin-top: 0px; line-height: 70%;&quot;&gt;START&lt;/h1&gt;&lt;p style=&quot;line-height: 70%;&quot;&gt;&lt;span style=&quot;white-space: pre;&quot;&gt;&#x9;&lt;/span&gt;1. COMPUTE ((num % 100) - (num % 10)) / 10&lt;/p&gt;&lt;h1 style=&quot;margin-top: 0px; line-height: 70%;&quot;&gt;RETURN&lt;/h1&gt;" style="text;html=1;whiteSpace=wrap;overflow=hidden;rounded=0;" vertex="1" parent="1">
          <mxGeometry x="220" y="810" width="300" height="120" as="geometry" />
        </mxCell>
        <mxCell id="fzreVTaqCBlUkeBc7WwT-32" value="&lt;h1 style=&quot;margin-top: 0px; line-height: 70%;&quot;&gt;&lt;u&gt;&lt;font style=&quot;font-size: 13px;&quot;&gt;sumDigits(firstLastInteger, secondLastInteger):&lt;/font&gt;&lt;/u&gt;&lt;/h1&gt;&lt;h1 style=&quot;margin-top: 0px;&quot;&gt;START&lt;/h1&gt;&lt;p&gt;&lt;span style=&quot;white-space: pre;&quot;&gt;&#x9;&lt;/span&gt;1. COMPUTE ((num % 100) - (num % 10)) / 10&lt;/p&gt;&lt;h1 style=&quot;margin-top: 0px;&quot;&gt;RETURN&lt;/h1&gt;" style="text;html=1;whiteSpace=wrap;overflow=hidden;rounded=0;" vertex="1" parent="1">
          <mxGeometry x="530" y="810" width="300" height="160" as="geometry" />
        </mxCell>
      </root>
    </mxGraphModel>
  </diagram>
  <diagram id="l7cWt7uIluwhW2HIQl5M" name="Page-2">
    <mxGraphModel dx="2750" dy="603" grid="1" gridSize="10" guides="1" tooltips="1" connect="1" arrows="1" fold="1" page="1" pageScale="1" pageWidth="850" pageHeight="1100" math="0" shadow="0">
      <root>
        <mxCell id="0" />
        <mxCell id="1" parent="0" />
        <mxCell id="K1FNUV7Z_iYxvBWCHHOl-3" style="edgeStyle=orthogonalEdgeStyle;rounded=0;orthogonalLoop=1;jettySize=auto;html=1;exitX=0.5;exitY=1;exitDx=0;exitDy=0;entryX=0.5;entryY=0;entryDx=0;entryDy=0;" edge="1" parent="1" source="K1FNUV7Z_iYxvBWCHHOl-1" target="K1FNUV7Z_iYxvBWCHHOl-2">
          <mxGeometry relative="1" as="geometry" />
        </mxCell>
        <mxCell id="K1FNUV7Z_iYxvBWCHHOl-1" value="START" style="ellipse;whiteSpace=wrap;html=1;" vertex="1" parent="1">
          <mxGeometry x="-445" y="10" width="120" height="50" as="geometry" />
        </mxCell>
        <mxCell id="K1FNUV7Z_iYxvBWCHHOl-10" style="edgeStyle=orthogonalEdgeStyle;rounded=0;orthogonalLoop=1;jettySize=auto;html=1;exitX=0.5;exitY=1;exitDx=0;exitDy=0;entryX=0.5;entryY=0;entryDx=0;entryDy=0;" edge="1" parent="1" source="K1FNUV7Z_iYxvBWCHHOl-2" target="K1FNUV7Z_iYxvBWCHHOl-4">
          <mxGeometry relative="1" as="geometry" />
        </mxCell>
        <mxCell id="K1FNUV7Z_iYxvBWCHHOl-2" value="GET ch" style="shape=parallelogram;perimeter=parallelogramPerimeter;whiteSpace=wrap;html=1;fixedSize=1;" vertex="1" parent="1">
          <mxGeometry x="-445" y="90" width="120" height="40" as="geometry" />
        </mxCell>
        <mxCell id="K1FNUV7Z_iYxvBWCHHOl-11" style="edgeStyle=orthogonalEdgeStyle;rounded=0;orthogonalLoop=1;jettySize=auto;html=1;exitX=0.5;exitY=1;exitDx=0;exitDy=0;entryX=0.5;entryY=0;entryDx=0;entryDy=0;" edge="1" parent="1" source="K1FNUV7Z_iYxvBWCHHOl-4" target="K1FNUV7Z_iYxvBWCHHOl-5">
          <mxGeometry relative="1" as="geometry" />
        </mxCell>
        <mxCell id="K1FNUV7Z_iYxvBWCHHOl-4" value="isCharVowel = isVowel(ch)" style="shape=process;whiteSpace=wrap;html=1;backgroundOutline=1;" vertex="1" parent="1">
          <mxGeometry x="-490" y="160" width="210" height="40" as="geometry" />
        </mxCell>
        <mxCell id="K1FNUV7Z_iYxvBWCHHOl-12" style="edgeStyle=orthogonalEdgeStyle;rounded=0;orthogonalLoop=1;jettySize=auto;html=1;exitX=0.5;exitY=1;exitDx=0;exitDy=0;entryX=0.5;entryY=0;entryDx=0;entryDy=0;" edge="1" parent="1" source="K1FNUV7Z_iYxvBWCHHOl-5" target="K1FNUV7Z_iYxvBWCHHOl-6">
          <mxGeometry relative="1" as="geometry" />
        </mxCell>
        <mxCell id="K1FNUV7Z_iYxvBWCHHOl-5" value="isCharLetter = isLetter(ch)" style="shape=process;whiteSpace=wrap;html=1;backgroundOutline=1;" vertex="1" parent="1">
          <mxGeometry x="-490" y="230" width="210" height="40" as="geometry" />
        </mxCell>
        <mxCell id="K1FNUV7Z_iYxvBWCHHOl-13" style="edgeStyle=orthogonalEdgeStyle;rounded=0;orthogonalLoop=1;jettySize=auto;html=1;exitX=1;exitY=0.5;exitDx=0;exitDy=0;entryX=0;entryY=0.5;entryDx=0;entryDy=0;" edge="1" parent="1" source="K1FNUV7Z_iYxvBWCHHOl-6" target="K1FNUV7Z_iYxvBWCHHOl-7">
          <mxGeometry relative="1" as="geometry" />
        </mxCell>
        <mxCell id="K1FNUV7Z_iYxvBWCHHOl-16" style="edgeStyle=orthogonalEdgeStyle;rounded=0;orthogonalLoop=1;jettySize=auto;html=1;exitX=0.5;exitY=1;exitDx=0;exitDy=0;entryX=0.5;entryY=0;entryDx=0;entryDy=0;" edge="1" parent="1" source="K1FNUV7Z_iYxvBWCHHOl-6" target="K1FNUV7Z_iYxvBWCHHOl-14">
          <mxGeometry relative="1" as="geometry" />
        </mxCell>
        <mxCell id="K1FNUV7Z_iYxvBWCHHOl-6" value="isCharLetter&lt;div&gt;?&lt;/div&gt;" style="rhombus;whiteSpace=wrap;html=1;" vertex="1" parent="1">
          <mxGeometry x="-455" y="300" width="140" height="90" as="geometry" />
        </mxCell>
        <mxCell id="K1FNUV7Z_iYxvBWCHHOl-19" style="edgeStyle=orthogonalEdgeStyle;rounded=0;orthogonalLoop=1;jettySize=auto;html=1;exitX=1;exitY=0.5;exitDx=0;exitDy=0;entryX=0;entryY=0.5;entryDx=0;entryDy=0;" edge="1" parent="1" source="K1FNUV7Z_iYxvBWCHHOl-7" target="K1FNUV7Z_iYxvBWCHHOl-18">
          <mxGeometry relative="1" as="geometry" />
        </mxCell>
        <mxCell id="K1FNUV7Z_iYxvBWCHHOl-25" style="edgeStyle=orthogonalEdgeStyle;rounded=0;orthogonalLoop=1;jettySize=auto;html=1;exitX=0.5;exitY=1;exitDx=0;exitDy=0;entryX=0.5;entryY=0;entryDx=0;entryDy=0;" edge="1" parent="1" source="K1FNUV7Z_iYxvBWCHHOl-7" target="K1FNUV7Z_iYxvBWCHHOl-24">
          <mxGeometry relative="1" as="geometry" />
        </mxCell>
        <mxCell id="K1FNUV7Z_iYxvBWCHHOl-7" value="isVowel&lt;div&gt;?&lt;/div&gt;" style="rhombus;whiteSpace=wrap;html=1;" vertex="1" parent="1">
          <mxGeometry x="-245" y="310" width="140" height="70" as="geometry" />
        </mxCell>
        <mxCell id="K1FNUV7Z_iYxvBWCHHOl-8" value="YES" style="text;html=1;align=center;verticalAlign=middle;whiteSpace=wrap;rounded=0;" vertex="1" parent="1">
          <mxGeometry x="-315" y="320" width="60" height="30" as="geometry" />
        </mxCell>
        <mxCell id="K1FNUV7Z_iYxvBWCHHOl-9" style="edgeStyle=orthogonalEdgeStyle;rounded=0;orthogonalLoop=1;jettySize=auto;html=1;exitX=0.5;exitY=1;exitDx=0;exitDy=0;" edge="1" parent="1" source="K1FNUV7Z_iYxvBWCHHOl-8" target="K1FNUV7Z_iYxvBWCHHOl-8">
          <mxGeometry relative="1" as="geometry" />
        </mxCell>
        <mxCell id="K1FNUV7Z_iYxvBWCHHOl-14" value="DISPLAY &quot;INVALID INPUT!&quot;" style="shape=parallelogram;perimeter=parallelogramPerimeter;whiteSpace=wrap;html=1;fixedSize=1;" vertex="1" parent="1">
          <mxGeometry x="-483.75" y="420" width="197.5" height="40" as="geometry" />
        </mxCell>
        <mxCell id="K1FNUV7Z_iYxvBWCHHOl-17" style="edgeStyle=orthogonalEdgeStyle;rounded=0;orthogonalLoop=1;jettySize=auto;html=1;exitX=0.5;exitY=1;exitDx=0;exitDy=0;entryX=0.5;entryY=0;entryDx=0;entryDy=0;entryPerimeter=0;" edge="1" parent="1" source="K1FNUV7Z_iYxvBWCHHOl-14">
          <mxGeometry relative="1" as="geometry">
            <mxPoint x="-385" y="520" as="targetPoint" />
          </mxGeometry>
        </mxCell>
        <mxCell id="K1FNUV7Z_iYxvBWCHHOl-27" style="edgeStyle=orthogonalEdgeStyle;rounded=0;orthogonalLoop=1;jettySize=auto;html=1;exitX=1;exitY=0.5;exitDx=0;exitDy=0;entryX=0;entryY=0.5;entryDx=0;entryDy=0;" edge="1" parent="1" source="K1FNUV7Z_iYxvBWCHHOl-18" target="K1FNUV7Z_iYxvBWCHHOl-26">
          <mxGeometry relative="1" as="geometry" />
        </mxCell>
        <mxCell id="K1FNUV7Z_iYxvBWCHHOl-18" value="DISPLAY &quot;VOWEL!&quot;" style="shape=parallelogram;perimeter=parallelogramPerimeter;whiteSpace=wrap;html=1;fixedSize=1;" vertex="1" parent="1">
          <mxGeometry x="-65" y="325" width="160" height="40" as="geometry" />
        </mxCell>
        <mxCell id="K1FNUV7Z_iYxvBWCHHOl-20" value="YES" style="text;html=1;align=center;verticalAlign=middle;whiteSpace=wrap;rounded=0;" vertex="1" parent="1">
          <mxGeometry x="-115" y="320" width="60" height="30" as="geometry" />
        </mxCell>
        <mxCell id="K1FNUV7Z_iYxvBWCHHOl-22" value="NO" style="text;html=1;align=center;verticalAlign=middle;whiteSpace=wrap;rounded=0;" vertex="1" parent="1">
          <mxGeometry x="-385" y="390" width="60" height="30" as="geometry" />
        </mxCell>
        <mxCell id="K1FNUV7Z_iYxvBWCHHOl-23" value="NO" style="text;html=1;align=center;verticalAlign=middle;whiteSpace=wrap;rounded=0;" vertex="1" parent="1">
          <mxGeometry x="-165" y="380" width="60" height="30" as="geometry" />
        </mxCell>
        <mxCell id="K1FNUV7Z_iYxvBWCHHOl-30" style="edgeStyle=orthogonalEdgeStyle;rounded=0;orthogonalLoop=1;jettySize=auto;html=1;exitX=0.5;exitY=1;exitDx=0;exitDy=0;entryX=0.5;entryY=0;entryDx=0;entryDy=0;" edge="1" parent="1" source="K1FNUV7Z_iYxvBWCHHOl-24" target="K1FNUV7Z_iYxvBWCHHOl-29">
          <mxGeometry relative="1" as="geometry" />
        </mxCell>
        <mxCell id="K1FNUV7Z_iYxvBWCHHOl-24" value="DISPLAY &quot;CONSONANT!&quot;" style="shape=parallelogram;perimeter=parallelogramPerimeter;whiteSpace=wrap;html=1;fixedSize=1;" vertex="1" parent="1">
          <mxGeometry x="-265" y="420" width="180" height="40" as="geometry" />
        </mxCell>
        <mxCell id="K1FNUV7Z_iYxvBWCHHOl-26" value="A" style="ellipse;whiteSpace=wrap;html=1;aspect=fixed;" vertex="1" parent="1">
          <mxGeometry x="135" y="330" width="30" height="30" as="geometry" />
        </mxCell>
        <mxCell id="K1FNUV7Z_iYxvBWCHHOl-28" value="A" style="ellipse;whiteSpace=wrap;html=1;aspect=fixed;" vertex="1" parent="1">
          <mxGeometry x="-400" y="520" width="30" height="30" as="geometry" />
        </mxCell>
        <mxCell id="K1FNUV7Z_iYxvBWCHHOl-29" value="A" style="ellipse;whiteSpace=wrap;html=1;aspect=fixed;" vertex="1" parent="1">
          <mxGeometry x="-190" y="520" width="30" height="30" as="geometry" />
        </mxCell>
        <mxCell id="K1FNUV7Z_iYxvBWCHHOl-31" value="A" style="ellipse;whiteSpace=wrap;html=1;aspect=fixed;" vertex="1" parent="1">
          <mxGeometry y="410" width="30" height="30" as="geometry" />
        </mxCell>
        <mxCell id="K1FNUV7Z_iYxvBWCHHOl-32" value="STOP" style="strokeWidth=2;html=1;shape=mxgraph.flowchart.terminator;whiteSpace=wrap;" vertex="1" parent="1">
          <mxGeometry x="-35" y="480" width="100" height="40" as="geometry" />
        </mxCell>
        <mxCell id="K1FNUV7Z_iYxvBWCHHOl-33" style="edgeStyle=orthogonalEdgeStyle;rounded=0;orthogonalLoop=1;jettySize=auto;html=1;exitX=0.5;exitY=1;exitDx=0;exitDy=0;entryX=0.5;entryY=0;entryDx=0;entryDy=0;entryPerimeter=0;" edge="1" parent="1" source="K1FNUV7Z_iYxvBWCHHOl-31" target="K1FNUV7Z_iYxvBWCHHOl-32">
          <mxGeometry relative="1" as="geometry" />
        </mxCell>
        <mxCell id="2YYSWSt__j7oMl7sqV56-1" value="&lt;h1 style=&quot;margin-top: 0px;&quot;&gt;&lt;u&gt;main():&lt;/u&gt;&lt;/h1&gt;&lt;h1 style=&quot;margin-top: 0px;&quot;&gt;START&lt;/h1&gt;&lt;p&gt;&lt;span style=&quot;white-space: pre;&quot;&gt;&#x9;&lt;/span&gt;1. GET ch&lt;br&gt;&lt;/p&gt;&lt;p&gt;&lt;span style=&quot;white-space: pre;&quot;&gt;&#x9;&lt;/span&gt;2. CALL isCharVowel = isVowel(ch)&lt;br&gt;&lt;/p&gt;&lt;p&gt;&lt;span style=&quot;white-space: pre;&quot;&gt;&#x9;&lt;/span&gt;3. CALL isCharLetter = isLetter(ch)&lt;br&gt;&lt;/p&gt;&lt;p&gt;&lt;span style=&quot;white-space: pre;&quot;&gt;&#x9;&lt;/span&gt;4. CHECK isCharLetter&lt;/p&gt;&lt;p&gt;&lt;span style=&quot;white-space: pre;&quot;&gt;&#x9;&lt;/span&gt;&lt;span style=&quot;white-space: pre;&quot;&gt;&#x9;&lt;/span&gt;a. IF isCharLetter&lt;br&gt;&lt;/p&gt;&lt;p&gt;&lt;span style=&quot;white-space: pre;&quot;&gt;&#x9;&lt;/span&gt;&lt;span style=&quot;white-space: pre;&quot;&gt;&#x9;&lt;/span&gt;&lt;span style=&quot;white-space: pre;&quot;&gt;&#x9;&lt;/span&gt;a.1 CHECK isVowel&lt;br&gt;&lt;/p&gt;&lt;p&gt;&lt;span style=&quot;white-space: pre;&quot;&gt;&#x9;&lt;/span&gt;&lt;span style=&quot;white-space: pre;&quot;&gt;&#x9;&lt;/span&gt;&lt;span style=&quot;white-space: pre;&quot;&gt;&#x9;&lt;/span&gt;&lt;span style=&quot;white-space: pre;&quot;&gt;&#x9;&lt;/span&gt;a.1.1 IF isVowel, THEN&lt;br&gt;&lt;/p&gt;&lt;p&gt;&lt;span style=&quot;white-space: pre;&quot;&gt;&#x9;&lt;/span&gt;&lt;span style=&quot;white-space: pre;&quot;&gt;&#x9;&lt;/span&gt;&lt;span style=&quot;white-space: pre;&quot;&gt;&#x9;&lt;/span&gt;&lt;span style=&quot;white-space: pre;&quot;&gt;&#x9;&lt;/span&gt;&lt;span style=&quot;white-space: pre;&quot;&gt;&#x9;&lt;/span&gt;&amp;nbsp;&lt;span style=&quot;white-space: pre;&quot;&gt;&#x9;&lt;/span&gt;DISPLAY &quot;VOWEL!&quot;&lt;br&gt;&lt;/p&gt;&lt;p&gt;&lt;span style=&quot;white-space: pre;&quot;&gt;&#x9;&lt;/span&gt;&lt;span style=&quot;white-space: pre;&quot;&gt;&#x9;&lt;/span&gt;&lt;span style=&quot;white-space: pre;&quot;&gt;&#x9;&lt;/span&gt;&lt;span style=&quot;white-space: pre;&quot;&gt;&#x9;&lt;/span&gt;a.1.2 ELSE&lt;br&gt;&lt;/p&gt;&lt;p&gt;&lt;span style=&quot;white-space: pre;&quot;&gt;&#x9;&lt;/span&gt;&lt;span style=&quot;white-space: pre;&quot;&gt;&#x9;&lt;/span&gt;&lt;span style=&quot;white-space: pre;&quot;&gt;&#x9;&lt;/span&gt;&lt;span style=&quot;white-space: pre;&quot;&gt;&#x9;&lt;/span&gt;&lt;span style=&quot;white-space: pre;&quot;&gt;&#x9;&lt;/span&gt;&lt;span style=&quot;white-space: pre;&quot;&gt;&#x9;&lt;/span&gt;DISPLAY &quot;CONSONANT!&quot;&lt;br&gt;&lt;/p&gt;&lt;p&gt;&lt;span style=&quot;white-space: pre;&quot;&gt;&#x9;&lt;/span&gt;&lt;span style=&quot;white-space: pre;&quot;&gt;&#x9;&lt;/span&gt;b. ELSE&amp;nbsp;&lt;br&gt;&lt;/p&gt;&lt;p&gt;&lt;span style=&quot;white-space: pre;&quot;&gt;&#x9;&lt;/span&gt;&lt;span style=&quot;white-space: pre;&quot;&gt;&#x9;&lt;/span&gt;&lt;span style=&quot;white-space: pre;&quot;&gt;&#x9;&lt;/span&gt;b.1 DISPLAY &quot;INVALID INPUT!&lt;br&gt;&lt;/p&gt;&lt;h1 style=&quot;margin-top: 0px;&quot;&gt;STOP&lt;/h1&gt;" style="text;html=1;whiteSpace=wrap;overflow=hidden;rounded=0;" vertex="1" parent="1">
          <mxGeometry x="-830" y="10" width="320" height="460" as="geometry" />
        </mxCell>
        <mxCell id="2YYSWSt__j7oMl7sqV56-2" value="isLetter(ch)" style="ellipse;whiteSpace=wrap;html=1;" vertex="1" parent="1">
          <mxGeometry x="-780" y="570" width="120" height="50" as="geometry" />
        </mxCell>
        <mxCell id="2YYSWSt__j7oMl7sqV56-3" value="(ch == &#39;a&#39; || ch == &#39;A&#39;) || (ch == &#39;e&#39; || ch == &#39;E&#39;)&amp;nbsp;&lt;div&gt;||&amp;nbsp;&lt;span style=&quot;background-color: initial;&quot;&gt;(ch == &#39;i&#39; || ch == &#39;I&#39;) || (ch == &#39;o&#39; || ch == &#39;O&#39;) ||&amp;nbsp;&lt;/span&gt;&lt;div&gt;(ch == &#39;u&#39; || ch == &#39;U&#39;)&lt;/div&gt;&lt;/div&gt;" style="rhombus;whiteSpace=wrap;html=1;" vertex="1" parent="1">
          <mxGeometry x="-890" y="660" width="340" height="130" as="geometry" />
        </mxCell>
      </root>
    </mxGraphModel>
  </diagram>
  <diagram id="Yiyzd7tK1VgVx6rcYWk_" name="Page-3">
    <mxGraphModel dx="1050" dy="603" grid="1" gridSize="10" guides="1" tooltips="1" connect="1" arrows="1" fold="1" page="1" pageScale="1" pageWidth="850" pageHeight="1100" math="0" shadow="0">
      <root>
        <mxCell id="0" />
        <mxCell id="1" parent="0" />
        <mxCell id="K1GjOJP1gYvgjTUfEYeX-20" style="edgeStyle=orthogonalEdgeStyle;rounded=0;orthogonalLoop=1;jettySize=auto;html=1;exitX=0.5;exitY=1;exitDx=0;exitDy=0;entryX=0.5;entryY=0;entryDx=0;entryDy=0;" parent="1" source="K1GjOJP1gYvgjTUfEYeX-1" target="K1GjOJP1gYvgjTUfEYeX-2" edge="1">
          <mxGeometry relative="1" as="geometry" />
        </mxCell>
        <mxCell id="K1GjOJP1gYvgjTUfEYeX-1" value="START" style="ellipse;whiteSpace=wrap;html=1;" parent="1" vertex="1">
          <mxGeometry x="40" y="10" width="120" height="50" as="geometry" />
        </mxCell>
        <mxCell id="K1GjOJP1gYvgjTUfEYeX-21" style="edgeStyle=orthogonalEdgeStyle;rounded=0;orthogonalLoop=1;jettySize=auto;html=1;exitX=0.5;exitY=1;exitDx=0;exitDy=0;entryX=0.5;entryY=0;entryDx=0;entryDy=0;" parent="1" source="K1GjOJP1gYvgjTUfEYeX-2" target="K1GjOJP1gYvgjTUfEYeX-3" edge="1">
          <mxGeometry relative="1" as="geometry" />
        </mxCell>
        <mxCell id="K1GjOJP1gYvgjTUfEYeX-2" value="INITIALIZE choice = 0" style="shape=hexagon;perimeter=hexagonPerimeter2;whiteSpace=wrap;html=1;fixedSize=1;" parent="1" vertex="1">
          <mxGeometry x="20" y="80" width="160" height="40" as="geometry" />
        </mxCell>
        <mxCell id="K1GjOJP1gYvgjTUfEYeX-22" style="edgeStyle=orthogonalEdgeStyle;rounded=0;orthogonalLoop=1;jettySize=auto;html=1;exitX=0.5;exitY=1;exitDx=0;exitDy=0;entryX=0.5;entryY=0;entryDx=0;entryDy=0;" parent="1" source="K1GjOJP1gYvgjTUfEYeX-3" target="K1GjOJP1gYvgjTUfEYeX-4" edge="1">
          <mxGeometry relative="1" as="geometry" />
        </mxCell>
        <mxCell id="K1GjOJP1gYvgjTUfEYeX-3" value="displayMenu()" style="shape=process;whiteSpace=wrap;html=1;backgroundOutline=1;" parent="1" vertex="1">
          <mxGeometry x="40" y="140" width="120" height="40" as="geometry" />
        </mxCell>
        <mxCell id="K1GjOJP1gYvgjTUfEYeX-23" style="edgeStyle=orthogonalEdgeStyle;rounded=0;orthogonalLoop=1;jettySize=auto;html=1;exitX=0.5;exitY=1;exitDx=0;exitDy=0;entryX=0.5;entryY=0;entryDx=0;entryDy=0;" parent="1" source="K1GjOJP1gYvgjTUfEYeX-4" target="K1GjOJP1gYvgjTUfEYeX-6" edge="1">
          <mxGeometry relative="1" as="geometry" />
        </mxCell>
        <mxCell id="K1GjOJP1gYvgjTUfEYeX-4" value="GET choice" style="shape=parallelogram;perimeter=parallelogramPerimeter;whiteSpace=wrap;html=1;fixedSize=1;" parent="1" vertex="1">
          <mxGeometry x="40" y="200" width="120" height="30" as="geometry" />
        </mxCell>
        <mxCell id="K1GjOJP1gYvgjTUfEYeX-8" style="edgeStyle=orthogonalEdgeStyle;rounded=0;orthogonalLoop=1;jettySize=auto;html=1;exitX=0.5;exitY=1;exitDx=0;exitDy=0;entryX=0.5;entryY=0;entryDx=0;entryDy=0;" parent="1" source="K1GjOJP1gYvgjTUfEYeX-6" edge="1">
          <mxGeometry relative="1" as="geometry">
            <mxPoint x="100" y="320" as="targetPoint" />
          </mxGeometry>
        </mxCell>
        <mxCell id="K1GjOJP1gYvgjTUfEYeX-6" value="SWITCH&lt;div&gt;choice&lt;/div&gt;" style="rounded=0;whiteSpace=wrap;html=1;" parent="1" vertex="1">
          <mxGeometry x="40" y="250" width="120" height="40" as="geometry" />
        </mxCell>
        <mxCell id="Y5KBU27TO07dMpTnoZfn-3" style="edgeStyle=orthogonalEdgeStyle;rounded=0;orthogonalLoop=1;jettySize=auto;html=1;exitX=1;exitY=0.5;exitDx=0;exitDy=0;entryX=0;entryY=0.5;entryDx=0;entryDy=0;" edge="1" parent="1" source="Y5KBU27TO07dMpTnoZfn-1" target="Y5KBU27TO07dMpTnoZfn-2">
          <mxGeometry relative="1" as="geometry" />
        </mxCell>
        <mxCell id="Y5KBU27TO07dMpTnoZfn-15" style="edgeStyle=orthogonalEdgeStyle;rounded=0;orthogonalLoop=1;jettySize=auto;html=1;exitX=0.5;exitY=1;exitDx=0;exitDy=0;" edge="1" parent="1" source="Y5KBU27TO07dMpTnoZfn-1" target="Y5KBU27TO07dMpTnoZfn-14">
          <mxGeometry relative="1" as="geometry" />
        </mxCell>
        <mxCell id="Y5KBU27TO07dMpTnoZfn-1" value="choice 1" style="rhombus;whiteSpace=wrap;html=1;" vertex="1" parent="1">
          <mxGeometry x="60" y="320" width="80" height="80" as="geometry" />
        </mxCell>
        <mxCell id="Y5KBU27TO07dMpTnoZfn-10" style="edgeStyle=orthogonalEdgeStyle;rounded=0;orthogonalLoop=1;jettySize=auto;html=1;exitX=1;exitY=0.5;exitDx=0;exitDy=0;entryX=0;entryY=0.5;entryDx=0;entryDy=0;" edge="1" parent="1" source="Y5KBU27TO07dMpTnoZfn-2" target="Y5KBU27TO07dMpTnoZfn-4">
          <mxGeometry relative="1" as="geometry" />
        </mxCell>
        <mxCell id="Y5KBU27TO07dMpTnoZfn-2" value="GET base, power" style="shape=parallelogram;perimeter=parallelogramPerimeter;whiteSpace=wrap;html=1;fixedSize=1;" vertex="1" parent="1">
          <mxGeometry x="180" y="340" width="140" height="40" as="geometry" />
        </mxCell>
        <mxCell id="Y5KBU27TO07dMpTnoZfn-11" style="edgeStyle=orthogonalEdgeStyle;rounded=0;orthogonalLoop=1;jettySize=auto;html=1;exitX=1;exitY=0.5;exitDx=0;exitDy=0;entryX=0;entryY=0.5;entryDx=0;entryDy=0;" edge="1" parent="1" source="Y5KBU27TO07dMpTnoZfn-4" target="Y5KBU27TO07dMpTnoZfn-5">
          <mxGeometry relative="1" as="geometry" />
        </mxCell>
        <mxCell id="Y5KBU27TO07dMpTnoZfn-4" value="result = powerSolver(base, power)" style="shape=process;whiteSpace=wrap;html=1;backgroundOutline=1;" vertex="1" parent="1">
          <mxGeometry x="370" y="335" width="260" height="50" as="geometry" />
        </mxCell>
        <mxCell id="Y5KBU27TO07dMpTnoZfn-12" style="edgeStyle=orthogonalEdgeStyle;rounded=0;orthogonalLoop=1;jettySize=auto;html=1;exitX=1;exitY=0.5;exitDx=0;exitDy=0;entryX=0;entryY=0.5;entryDx=0;entryDy=0;" edge="1" parent="1" source="Y5KBU27TO07dMpTnoZfn-5" target="Y5KBU27TO07dMpTnoZfn-6">
          <mxGeometry relative="1" as="geometry" />
        </mxCell>
        <mxCell id="Y5KBU27TO07dMpTnoZfn-5" value="DISPLAY result" style="shape=parallelogram;perimeter=parallelogramPerimeter;whiteSpace=wrap;html=1;fixedSize=1;" vertex="1" parent="1">
          <mxGeometry x="670" y="340" width="120" height="40" as="geometry" />
        </mxCell>
        <mxCell id="Y5KBU27TO07dMpTnoZfn-6" value="&lt;font style=&quot;font-size: 23px;&quot;&gt;A&lt;/font&gt;" style="ellipse;whiteSpace=wrap;html=1;aspect=fixed;" vertex="1" parent="1">
          <mxGeometry x="830" y="335" width="50" height="50" as="geometry" />
        </mxCell>
        <mxCell id="Y5KBU27TO07dMpTnoZfn-7" value="&lt;font style=&quot;font-size: 23px;&quot;&gt;A&lt;/font&gt;" style="ellipse;whiteSpace=wrap;html=1;aspect=fixed;" vertex="1" parent="1">
          <mxGeometry x="320" y="10" width="50" height="50" as="geometry" />
        </mxCell>
        <mxCell id="Y5KBU27TO07dMpTnoZfn-8" value="STOP" style="strokeWidth=2;html=1;shape=mxgraph.flowchart.terminator;whiteSpace=wrap;" vertex="1" parent="1">
          <mxGeometry x="295" y="90" width="100" height="40" as="geometry" />
        </mxCell>
        <mxCell id="Y5KBU27TO07dMpTnoZfn-9" style="edgeStyle=orthogonalEdgeStyle;rounded=0;orthogonalLoop=1;jettySize=auto;html=1;exitX=0.5;exitY=1;exitDx=0;exitDy=0;entryX=0.5;entryY=0;entryDx=0;entryDy=0;entryPerimeter=0;" edge="1" parent="1" source="Y5KBU27TO07dMpTnoZfn-7" target="Y5KBU27TO07dMpTnoZfn-8">
          <mxGeometry relative="1" as="geometry" />
        </mxCell>
        <mxCell id="Y5KBU27TO07dMpTnoZfn-18" style="edgeStyle=orthogonalEdgeStyle;rounded=0;orthogonalLoop=1;jettySize=auto;html=1;exitX=1;exitY=0.5;exitDx=0;exitDy=0;entryX=0;entryY=0.5;entryDx=0;entryDy=0;" edge="1" parent="1" source="Y5KBU27TO07dMpTnoZfn-14" target="Y5KBU27TO07dMpTnoZfn-16">
          <mxGeometry relative="1" as="geometry" />
        </mxCell>
        <mxCell id="Y5KBU27TO07dMpTnoZfn-29" style="edgeStyle=orthogonalEdgeStyle;rounded=0;orthogonalLoop=1;jettySize=auto;html=1;exitX=0.5;exitY=1;exitDx=0;exitDy=0;entryX=0.5;entryY=0;entryDx=0;entryDy=0;" edge="1" parent="1" source="Y5KBU27TO07dMpTnoZfn-14" target="Y5KBU27TO07dMpTnoZfn-28">
          <mxGeometry relative="1" as="geometry" />
        </mxCell>
        <mxCell id="Y5KBU27TO07dMpTnoZfn-14" value="choice 2" style="rhombus;whiteSpace=wrap;html=1;" vertex="1" parent="1">
          <mxGeometry x="60" y="440" width="80" height="80" as="geometry" />
        </mxCell>
        <mxCell id="Y5KBU27TO07dMpTnoZfn-19" style="edgeStyle=orthogonalEdgeStyle;rounded=0;orthogonalLoop=1;jettySize=auto;html=1;exitX=1;exitY=0.5;exitDx=0;exitDy=0;entryX=0;entryY=0.5;entryDx=0;entryDy=0;" edge="1" parent="1" source="Y5KBU27TO07dMpTnoZfn-16" target="Y5KBU27TO07dMpTnoZfn-17">
          <mxGeometry relative="1" as="geometry" />
        </mxCell>
        <mxCell id="Y5KBU27TO07dMpTnoZfn-16" value="GET num" style="shape=parallelogram;perimeter=parallelogramPerimeter;whiteSpace=wrap;html=1;fixedSize=1;" vertex="1" parent="1">
          <mxGeometry x="180" y="460" width="110" height="40" as="geometry" />
        </mxCell>
        <mxCell id="Y5KBU27TO07dMpTnoZfn-26" style="edgeStyle=orthogonalEdgeStyle;rounded=0;orthogonalLoop=1;jettySize=auto;html=1;exitX=1;exitY=0.5;exitDx=0;exitDy=0;entryX=0;entryY=0.5;entryDx=0;entryDy=0;" edge="1" parent="1" source="Y5KBU27TO07dMpTnoZfn-17" target="Y5KBU27TO07dMpTnoZfn-24">
          <mxGeometry relative="1" as="geometry" />
        </mxCell>
        <mxCell id="Y5KBU27TO07dMpTnoZfn-17" value="result = factorialSolver(num)" style="shape=process;whiteSpace=wrap;html=1;backgroundOutline=1;" vertex="1" parent="1">
          <mxGeometry x="340" y="455" width="210" height="50" as="geometry" />
        </mxCell>
        <mxCell id="Y5KBU27TO07dMpTnoZfn-20" value="YES" style="text;html=1;align=center;verticalAlign=middle;whiteSpace=wrap;rounded=0;" vertex="1" parent="1">
          <mxGeometry x="130" y="455" width="60" height="30" as="geometry" />
        </mxCell>
        <mxCell id="Y5KBU27TO07dMpTnoZfn-21" value="YES" style="text;html=1;align=center;verticalAlign=middle;whiteSpace=wrap;rounded=0;" vertex="1" parent="1">
          <mxGeometry x="130" y="335" width="60" height="30" as="geometry" />
        </mxCell>
        <mxCell id="Y5KBU27TO07dMpTnoZfn-22" value="NO" style="text;html=1;align=center;verticalAlign=middle;whiteSpace=wrap;rounded=0;" vertex="1" parent="1">
          <mxGeometry x="40" y="290" width="60" height="30" as="geometry" />
        </mxCell>
        <mxCell id="Y5KBU27TO07dMpTnoZfn-23" value="NO" style="text;html=1;align=center;verticalAlign=middle;whiteSpace=wrap;rounded=0;" vertex="1" parent="1">
          <mxGeometry x="40" y="400" width="60" height="30" as="geometry" />
        </mxCell>
        <mxCell id="Y5KBU27TO07dMpTnoZfn-27" style="edgeStyle=orthogonalEdgeStyle;rounded=0;orthogonalLoop=1;jettySize=auto;html=1;exitX=1;exitY=0.5;exitDx=0;exitDy=0;entryX=0;entryY=0.5;entryDx=0;entryDy=0;" edge="1" parent="1" source="Y5KBU27TO07dMpTnoZfn-24" target="Y5KBU27TO07dMpTnoZfn-25">
          <mxGeometry relative="1" as="geometry" />
        </mxCell>
        <mxCell id="Y5KBU27TO07dMpTnoZfn-24" value="DISPLAY result" style="shape=parallelogram;perimeter=parallelogramPerimeter;whiteSpace=wrap;html=1;fixedSize=1;" vertex="1" parent="1">
          <mxGeometry x="580" y="460" width="120" height="40" as="geometry" />
        </mxCell>
        <mxCell id="Y5KBU27TO07dMpTnoZfn-25" value="&lt;font style=&quot;font-size: 23px;&quot;&gt;A&lt;/font&gt;" style="ellipse;whiteSpace=wrap;html=1;aspect=fixed;" vertex="1" parent="1">
          <mxGeometry x="730" y="455" width="50" height="50" as="geometry" />
        </mxCell>
        <mxCell id="Y5KBU27TO07dMpTnoZfn-33" style="edgeStyle=orthogonalEdgeStyle;rounded=0;orthogonalLoop=1;jettySize=auto;html=1;exitX=1;exitY=0.5;exitDx=0;exitDy=0;entryX=0;entryY=0.5;entryDx=0;entryDy=0;" edge="1" parent="1" source="Y5KBU27TO07dMpTnoZfn-28" target="Y5KBU27TO07dMpTnoZfn-32">
          <mxGeometry relative="1" as="geometry" />
        </mxCell>
        <mxCell id="Y5KBU27TO07dMpTnoZfn-72" style="edgeStyle=orthogonalEdgeStyle;rounded=0;orthogonalLoop=1;jettySize=auto;html=1;exitX=0.5;exitY=1;exitDx=0;exitDy=0;entryX=1;entryY=1;entryDx=0;entryDy=0;" edge="1" parent="1" source="Y5KBU27TO07dMpTnoZfn-28" target="Y5KBU27TO07dMpTnoZfn-71">
          <mxGeometry relative="1" as="geometry" />
        </mxCell>
        <mxCell id="Y5KBU27TO07dMpTnoZfn-28" value="choice 3" style="rhombus;whiteSpace=wrap;html=1;" vertex="1" parent="1">
          <mxGeometry x="60" y="560" width="80" height="80" as="geometry" />
        </mxCell>
        <mxCell id="Y5KBU27TO07dMpTnoZfn-30" value="NO" style="text;html=1;align=center;verticalAlign=middle;whiteSpace=wrap;rounded=0;" vertex="1" parent="1">
          <mxGeometry x="40" y="520" width="60" height="30" as="geometry" />
        </mxCell>
        <mxCell id="Y5KBU27TO07dMpTnoZfn-35" style="edgeStyle=orthogonalEdgeStyle;rounded=0;orthogonalLoop=1;jettySize=auto;html=1;exitX=1;exitY=0.5;exitDx=0;exitDy=0;entryX=0;entryY=0.5;entryDx=0;entryDy=0;" edge="1" parent="1" source="Y5KBU27TO07dMpTnoZfn-32" target="Y5KBU27TO07dMpTnoZfn-34">
          <mxGeometry relative="1" as="geometry" />
        </mxCell>
        <mxCell id="Y5KBU27TO07dMpTnoZfn-32" value="GET a, b, c" style="shape=parallelogram;perimeter=parallelogramPerimeter;whiteSpace=wrap;html=1;fixedSize=1;" vertex="1" parent="1">
          <mxGeometry x="170" y="580" width="110" height="40" as="geometry" />
        </mxCell>
        <mxCell id="Y5KBU27TO07dMpTnoZfn-39" style="edgeStyle=orthogonalEdgeStyle;rounded=0;orthogonalLoop=1;jettySize=auto;html=1;exitX=1;exitY=0.5;exitDx=0;exitDy=0;entryX=0;entryY=0.5;entryDx=0;entryDy=0;" edge="1" parent="1" source="Y5KBU27TO07dMpTnoZfn-34" target="Y5KBU27TO07dMpTnoZfn-37">
          <mxGeometry relative="1" as="geometry" />
        </mxCell>
        <mxCell id="Y5KBU27TO07dMpTnoZfn-34" value="result = quadraticSolver(a, b, c)" style="shape=process;whiteSpace=wrap;html=1;backgroundOutline=1;" vertex="1" parent="1">
          <mxGeometry x="310" y="575" width="220" height="50" as="geometry" />
        </mxCell>
        <mxCell id="Y5KBU27TO07dMpTnoZfn-36" value="YES" style="text;html=1;align=center;verticalAlign=middle;whiteSpace=wrap;rounded=0;" vertex="1" parent="1">
          <mxGeometry x="130" y="575" width="60" height="30" as="geometry" />
        </mxCell>
        <mxCell id="Y5KBU27TO07dMpTnoZfn-40" style="edgeStyle=orthogonalEdgeStyle;rounded=0;orthogonalLoop=1;jettySize=auto;html=1;exitX=1;exitY=0.5;exitDx=0;exitDy=0;entryX=0;entryY=0.5;entryDx=0;entryDy=0;" edge="1" parent="1" source="Y5KBU27TO07dMpTnoZfn-37" target="Y5KBU27TO07dMpTnoZfn-38">
          <mxGeometry relative="1" as="geometry" />
        </mxCell>
        <mxCell id="Y5KBU27TO07dMpTnoZfn-37" value="&lt;font style=&quot;font-size: 23px;&quot;&gt;B&lt;/font&gt;" style="ellipse;whiteSpace=wrap;html=1;aspect=fixed;" vertex="1" parent="1">
          <mxGeometry x="580" y="575" width="50" height="50" as="geometry" />
        </mxCell>
        <mxCell id="Y5KBU27TO07dMpTnoZfn-38" value="&lt;font style=&quot;font-size: 23px;&quot;&gt;A&lt;/font&gt;" style="ellipse;whiteSpace=wrap;html=1;aspect=fixed;" vertex="1" parent="1">
          <mxGeometry x="730" y="575" width="50" height="50" as="geometry" />
        </mxCell>
        <mxCell id="Y5KBU27TO07dMpTnoZfn-43" style="edgeStyle=orthogonalEdgeStyle;rounded=0;orthogonalLoop=1;jettySize=auto;html=1;exitX=0.5;exitY=1;exitDx=0;exitDy=0;entryX=0.5;entryY=0;entryDx=0;entryDy=0;" edge="1" parent="1" source="Y5KBU27TO07dMpTnoZfn-41" target="Y5KBU27TO07dMpTnoZfn-42">
          <mxGeometry relative="1" as="geometry" />
        </mxCell>
        <mxCell id="Y5KBU27TO07dMpTnoZfn-41" value="&lt;font style=&quot;font-size: 23px;&quot;&gt;B&lt;/font&gt;" style="ellipse;whiteSpace=wrap;html=1;aspect=fixed;" vertex="1" parent="1">
          <mxGeometry x="995" y="10" width="50" height="50" as="geometry" />
        </mxCell>
        <mxCell id="Y5KBU27TO07dMpTnoZfn-45" style="edgeStyle=orthogonalEdgeStyle;rounded=0;orthogonalLoop=1;jettySize=auto;html=1;exitX=1;exitY=0.5;exitDx=0;exitDy=0;entryX=0;entryY=0.5;entryDx=0;entryDy=0;" edge="1" parent="1" source="Y5KBU27TO07dMpTnoZfn-42" target="Y5KBU27TO07dMpTnoZfn-44">
          <mxGeometry relative="1" as="geometry" />
        </mxCell>
        <mxCell id="Y5KBU27TO07dMpTnoZfn-50" style="edgeStyle=orthogonalEdgeStyle;rounded=0;orthogonalLoop=1;jettySize=auto;html=1;exitX=0.5;exitY=1;exitDx=0;exitDy=0;entryX=0.5;entryY=0;entryDx=0;entryDy=0;" edge="1" parent="1" source="Y5KBU27TO07dMpTnoZfn-42" target="Y5KBU27TO07dMpTnoZfn-49">
          <mxGeometry relative="1" as="geometry" />
        </mxCell>
        <mxCell id="Y5KBU27TO07dMpTnoZfn-42" value="result == 1&lt;div&gt;?&lt;/div&gt;" style="rhombus;whiteSpace=wrap;html=1;" vertex="1" parent="1">
          <mxGeometry x="980" y="100" width="80" height="80" as="geometry" />
        </mxCell>
        <mxCell id="Y5KBU27TO07dMpTnoZfn-44" value="DISPLAY&lt;div&gt;&amp;nbsp;&quot;There is no solution.&quot;&lt;/div&gt;" style="shape=parallelogram;perimeter=parallelogramPerimeter;whiteSpace=wrap;html=1;fixedSize=1;" vertex="1" parent="1">
          <mxGeometry x="1100" y="115" width="160" height="50" as="geometry" />
        </mxCell>
        <mxCell id="Y5KBU27TO07dMpTnoZfn-46" value="YES" style="text;html=1;align=center;verticalAlign=middle;whiteSpace=wrap;rounded=0;" vertex="1" parent="1">
          <mxGeometry x="1050" y="110" width="60" height="30" as="geometry" />
        </mxCell>
        <mxCell id="Y5KBU27TO07dMpTnoZfn-48" value="NO" style="text;html=1;align=center;verticalAlign=middle;whiteSpace=wrap;rounded=0;" vertex="1" parent="1">
          <mxGeometry x="1010" y="190" width="60" height="30" as="geometry" />
        </mxCell>
        <mxCell id="Y5KBU27TO07dMpTnoZfn-53" style="edgeStyle=orthogonalEdgeStyle;rounded=0;orthogonalLoop=1;jettySize=auto;html=1;exitX=1;exitY=0.5;exitDx=0;exitDy=0;entryX=0;entryY=0.5;entryDx=0;entryDy=0;" edge="1" parent="1" source="Y5KBU27TO07dMpTnoZfn-49">
          <mxGeometry relative="1" as="geometry">
            <mxPoint x="1100" y="270" as="targetPoint" />
          </mxGeometry>
        </mxCell>
        <mxCell id="Y5KBU27TO07dMpTnoZfn-57" style="edgeStyle=orthogonalEdgeStyle;rounded=0;orthogonalLoop=1;jettySize=auto;html=1;exitX=0.5;exitY=1;exitDx=0;exitDy=0;entryX=0.5;entryY=0;entryDx=0;entryDy=0;" edge="1" parent="1" source="Y5KBU27TO07dMpTnoZfn-49" target="Y5KBU27TO07dMpTnoZfn-56">
          <mxGeometry relative="1" as="geometry" />
        </mxCell>
        <mxCell id="Y5KBU27TO07dMpTnoZfn-49" value="result == 2&lt;div&gt;?&lt;/div&gt;" style="rhombus;whiteSpace=wrap;html=1;" vertex="1" parent="1">
          <mxGeometry x="980" y="230" width="80" height="80" as="geometry" />
        </mxCell>
        <mxCell id="Y5KBU27TO07dMpTnoZfn-54" value="DISPLAY root1" style="shape=parallelogram;perimeter=parallelogramPerimeter;whiteSpace=wrap;html=1;fixedSize=1;" vertex="1" parent="1">
          <mxGeometry x="1090" y="250" width="120" height="40" as="geometry" />
        </mxCell>
        <mxCell id="Y5KBU27TO07dMpTnoZfn-60" style="edgeStyle=orthogonalEdgeStyle;rounded=0;orthogonalLoop=1;jettySize=auto;html=1;exitX=1;exitY=0.5;exitDx=0;exitDy=0;entryX=0;entryY=0.5;entryDx=0;entryDy=0;" edge="1" parent="1" source="Y5KBU27TO07dMpTnoZfn-56" target="Y5KBU27TO07dMpTnoZfn-59">
          <mxGeometry relative="1" as="geometry" />
        </mxCell>
        <mxCell id="Y5KBU27TO07dMpTnoZfn-65" style="edgeStyle=orthogonalEdgeStyle;rounded=0;orthogonalLoop=1;jettySize=auto;html=1;exitX=0.5;exitY=1;exitDx=0;exitDy=0;entryX=0.5;entryY=0;entryDx=0;entryDy=0;" edge="1" parent="1" source="Y5KBU27TO07dMpTnoZfn-56">
          <mxGeometry relative="1" as="geometry">
            <mxPoint x="1020" y="470" as="targetPoint" />
          </mxGeometry>
        </mxCell>
        <mxCell id="Y5KBU27TO07dMpTnoZfn-56" value="result == 3&lt;div&gt;?&lt;/div&gt;" style="rhombus;whiteSpace=wrap;html=1;" vertex="1" parent="1">
          <mxGeometry x="980" y="350" width="80" height="80" as="geometry" />
        </mxCell>
        <mxCell id="Y5KBU27TO07dMpTnoZfn-58" value="NO" style="text;html=1;align=center;verticalAlign=middle;whiteSpace=wrap;rounded=0;" vertex="1" parent="1">
          <mxGeometry x="1010" y="310" width="60" height="30" as="geometry" />
        </mxCell>
        <mxCell id="Y5KBU27TO07dMpTnoZfn-59" value="DISPLAY&lt;div&gt;&amp;nbsp;&quot;There are no real roots&quot;&lt;/div&gt;" style="shape=parallelogram;perimeter=parallelogramPerimeter;whiteSpace=wrap;html=1;fixedSize=1;" vertex="1" parent="1">
          <mxGeometry x="1100" y="365" width="160" height="50" as="geometry" />
        </mxCell>
        <mxCell id="Y5KBU27TO07dMpTnoZfn-61" value="NO" style="text;html=1;align=center;verticalAlign=middle;whiteSpace=wrap;rounded=0;" vertex="1" parent="1">
          <mxGeometry x="1010" y="430" width="60" height="30" as="geometry" />
        </mxCell>
        <mxCell id="Y5KBU27TO07dMpTnoZfn-62" value="YES" style="text;html=1;align=center;verticalAlign=middle;whiteSpace=wrap;rounded=0;" vertex="1" parent="1">
          <mxGeometry x="1045" y="240" width="60" height="30" as="geometry" />
        </mxCell>
        <mxCell id="Y5KBU27TO07dMpTnoZfn-63" value="YES" style="text;html=1;align=center;verticalAlign=middle;whiteSpace=wrap;rounded=0;" vertex="1" parent="1">
          <mxGeometry x="1050" y="365" width="60" height="30" as="geometry" />
        </mxCell>
        <mxCell id="Y5KBU27TO07dMpTnoZfn-68" value="DISPLAY root1, root2" style="shape=parallelogram;perimeter=parallelogramPerimeter;whiteSpace=wrap;html=1;fixedSize=1;" vertex="1" parent="1">
          <mxGeometry x="940" y="470" width="160" height="50" as="geometry" />
        </mxCell>
        <mxCell id="Y5KBU27TO07dMpTnoZfn-74" style="edgeStyle=orthogonalEdgeStyle;rounded=0;orthogonalLoop=1;jettySize=auto;html=1;exitX=1;exitY=0.5;exitDx=0;exitDy=0;entryX=0;entryY=0.5;entryDx=0;entryDy=0;" edge="1" parent="1" source="Y5KBU27TO07dMpTnoZfn-70" target="Y5KBU27TO07dMpTnoZfn-73">
          <mxGeometry relative="1" as="geometry" />
        </mxCell>
        <mxCell id="Y5KBU27TO07dMpTnoZfn-79" style="edgeStyle=orthogonalEdgeStyle;rounded=0;orthogonalLoop=1;jettySize=auto;html=1;exitX=0.5;exitY=1;exitDx=0;exitDy=0;entryX=0.5;entryY=0;entryDx=0;entryDy=0;" edge="1" parent="1" source="Y5KBU27TO07dMpTnoZfn-70" target="Y5KBU27TO07dMpTnoZfn-77">
          <mxGeometry relative="1" as="geometry" />
        </mxCell>
        <mxCell id="Y5KBU27TO07dMpTnoZfn-70" value="choice 4" style="rhombus;whiteSpace=wrap;html=1;" vertex="1" parent="1">
          <mxGeometry x="60" y="670" width="80" height="80" as="geometry" />
        </mxCell>
        <mxCell id="Y5KBU27TO07dMpTnoZfn-71" value="NO" style="text;html=1;align=center;verticalAlign=middle;whiteSpace=wrap;rounded=0;" vertex="1" parent="1">
          <mxGeometry x="40" y="640" width="60" height="30" as="geometry" />
        </mxCell>
        <mxCell id="Y5KBU27TO07dMpTnoZfn-73" value="&lt;font style=&quot;font-size: 23px;&quot;&gt;A&lt;/font&gt;" style="ellipse;whiteSpace=wrap;html=1;aspect=fixed;" vertex="1" parent="1">
          <mxGeometry x="190" y="685" width="50" height="50" as="geometry" />
        </mxCell>
        <mxCell id="Y5KBU27TO07dMpTnoZfn-75" value="YES" style="text;html=1;align=center;verticalAlign=middle;whiteSpace=wrap;rounded=0;" vertex="1" parent="1">
          <mxGeometry x="130" y="680" width="60" height="30" as="geometry" />
        </mxCell>
        <mxCell id="Y5KBU27TO07dMpTnoZfn-76" value="NO" style="text;html=1;align=center;verticalAlign=middle;whiteSpace=wrap;rounded=0;" vertex="1" parent="1">
          <mxGeometry x="50" y="760" width="60" height="30" as="geometry" />
        </mxCell>
        <mxCell id="Y5KBU27TO07dMpTnoZfn-81" style="edgeStyle=orthogonalEdgeStyle;rounded=0;orthogonalLoop=1;jettySize=auto;html=1;exitX=1;exitY=0.5;exitDx=0;exitDy=0;entryX=0;entryY=0.5;entryDx=0;entryDy=0;" edge="1" parent="1" source="Y5KBU27TO07dMpTnoZfn-77" target="Y5KBU27TO07dMpTnoZfn-80">
          <mxGeometry relative="1" as="geometry" />
        </mxCell>
        <mxCell id="Y5KBU27TO07dMpTnoZfn-77" value="default" style="rhombus;whiteSpace=wrap;html=1;" vertex="1" parent="1">
          <mxGeometry x="60" y="790" width="80" height="80" as="geometry" />
        </mxCell>
        <mxCell id="Y5KBU27TO07dMpTnoZfn-84" style="edgeStyle=orthogonalEdgeStyle;rounded=0;orthogonalLoop=1;jettySize=auto;html=1;exitX=1;exitY=0.5;exitDx=0;exitDy=0;entryX=0;entryY=0.5;entryDx=0;entryDy=0;" edge="1" parent="1" source="Y5KBU27TO07dMpTnoZfn-80" target="Y5KBU27TO07dMpTnoZfn-83">
          <mxGeometry relative="1" as="geometry" />
        </mxCell>
        <mxCell id="Y5KBU27TO07dMpTnoZfn-80" value="DISPLAY&amp;nbsp;&lt;div&gt;&quot;Invalid Option&quot;&lt;/div&gt;" style="shape=parallelogram;perimeter=parallelogramPerimeter;whiteSpace=wrap;html=1;fixedSize=1;" vertex="1" parent="1">
          <mxGeometry x="175" y="810" width="150" height="40" as="geometry" />
        </mxCell>
        <mxCell id="Y5KBU27TO07dMpTnoZfn-82" value="YES" style="text;html=1;align=center;verticalAlign=middle;whiteSpace=wrap;rounded=0;" vertex="1" parent="1">
          <mxGeometry x="120" y="800" width="60" height="30" as="geometry" />
        </mxCell>
        <mxCell id="Y5KBU27TO07dMpTnoZfn-83" value="&lt;font style=&quot;font-size: 23px;&quot;&gt;A&lt;/font&gt;" style="ellipse;whiteSpace=wrap;html=1;aspect=fixed;" vertex="1" parent="1">
          <mxGeometry x="380" y="805" width="50" height="50" as="geometry" />
        </mxCell>
        <mxCell id="q6b_T3GVfFTgLsL5K9qZ-1" value="&lt;h1 style=&quot;margin-top: 0px;&quot;&gt;&lt;u&gt;main():&lt;/u&gt;&lt;/h1&gt;&lt;h1 style=&quot;margin-top: 0px;&quot;&gt;START&lt;/h1&gt;&lt;p&gt;&lt;span style=&quot;white-space: pre;&quot;&gt;&#x9;&lt;/span&gt;1. INITIALIZE choice = 0&lt;/p&gt;&lt;p&gt;&lt;span style=&quot;white-space: pre;&quot;&gt;&#x9;&lt;/span&gt;2. CALL displayMenu()&lt;/p&gt;&lt;p&gt;&lt;span style=&quot;white-space: pre;&quot;&gt;&#x9;&lt;/span&gt;3. GET choice&lt;br&gt;&lt;/p&gt;&lt;p&gt;&lt;span style=&quot;white-space: pre;&quot;&gt;&#x9;&lt;/span&gt;4. CASE choice OF&lt;/p&gt;&lt;p&gt;&lt;span style=&quot;white-space: pre;&quot;&gt;&#x9;&lt;/span&gt;&lt;span style=&quot;white-space: pre;&quot;&gt;&#x9;&lt;/span&gt;1 :&amp;nbsp;&lt;br&gt;&lt;/p&gt;&lt;p&gt;&lt;span style=&quot;white-space: pre;&quot;&gt;&#x9;&lt;/span&gt;&lt;span style=&quot;white-space: pre;&quot;&gt;&#x9;&lt;/span&gt;&lt;span style=&quot;white-space: pre;&quot;&gt;&#x9;&lt;/span&gt;GET base, power&lt;br&gt;&lt;/p&gt;&lt;p&gt;&lt;span style=&quot;white-space: pre;&quot;&gt;&#x9;&lt;/span&gt;&lt;span style=&quot;white-space: pre;&quot;&gt;&#x9;&lt;/span&gt;&lt;span style=&quot;white-space: pre;&quot;&gt;&#x9;&lt;/span&gt;CALL result = powerSolver(base, power)&lt;br&gt;&lt;/p&gt;&lt;p&gt;&lt;span style=&quot;white-space: pre;&quot;&gt;&#x9;&lt;/span&gt;&lt;span style=&quot;white-space: pre;&quot;&gt;&#x9;&lt;/span&gt;&lt;span style=&quot;white-space: pre;&quot;&gt;&#x9;&lt;/span&gt;DISPLAY result&lt;br&gt;&lt;/p&gt;&lt;p&gt;&lt;span style=&quot;white-space: pre;&quot;&gt;&#x9;&lt;/span&gt;&lt;span style=&quot;white-space: pre;&quot;&gt;&#x9;&lt;/span&gt;&lt;span style=&quot;white-space: pre;&quot;&gt;&#x9;&lt;/span&gt;BREAK&lt;br&gt;&lt;/p&gt;&lt;p&gt;&lt;span style=&quot;white-space: pre;&quot;&gt;&#x9;&lt;/span&gt;&lt;span style=&quot;white-space: pre;&quot;&gt;&#x9;&lt;/span&gt;2:&lt;br&gt;&lt;/p&gt;&lt;p&gt;&lt;span style=&quot;white-space: pre;&quot;&gt;&#x9;&lt;/span&gt;&lt;span style=&quot;white-space: pre;&quot;&gt;&#x9;&lt;/span&gt;&lt;span style=&quot;white-space: pre;&quot;&gt;&#x9;&lt;/span&gt;GET num&lt;br&gt;&lt;/p&gt;&lt;p&gt;&lt;span style=&quot;white-space: pre;&quot;&gt;&#x9;&lt;/span&gt;&lt;span style=&quot;white-space: pre;&quot;&gt;&#x9;&lt;/span&gt;&lt;span style=&quot;white-space: pre;&quot;&gt;&#x9;&lt;/span&gt;CALL result = factorialSolver(num)&lt;br&gt;&lt;/p&gt;&lt;p&gt;&lt;span style=&quot;white-space: pre;&quot;&gt;&#x9;&lt;/span&gt;&lt;span style=&quot;white-space: pre;&quot;&gt;&#x9;&lt;/span&gt;&lt;span style=&quot;white-space: pre;&quot;&gt;&#x9;&lt;/span&gt;DISPLAY num, result&lt;br&gt;&lt;/p&gt;&lt;p&gt;&lt;span style=&quot;white-space: pre;&quot;&gt;&#x9;&lt;/span&gt;&lt;span style=&quot;white-space: pre;&quot;&gt;&#x9;&lt;/span&gt;&lt;span style=&quot;white-space: pre;&quot;&gt;&#x9;&lt;/span&gt;BREAK&lt;br&gt;&lt;/p&gt;&lt;p&gt;&lt;span style=&quot;white-space: pre;&quot;&gt;&#x9;&lt;/span&gt;&lt;span style=&quot;white-space: pre;&quot;&gt;&#x9;&lt;/span&gt;3:&lt;br&gt;&lt;/p&gt;&lt;p&gt;&lt;span style=&quot;white-space: pre;&quot;&gt;&#x9;&lt;/span&gt;&lt;span style=&quot;white-space: pre;&quot;&gt;&#x9;&lt;/span&gt;&lt;span style=&quot;white-space: pre;&quot;&gt;&#x9;&lt;/span&gt;GET a, b, c&lt;br&gt;&lt;/p&gt;&lt;p&gt;&lt;span style=&quot;white-space: pre;&quot;&gt;&#x9;&lt;/span&gt;&lt;span style=&quot;white-space: pre;&quot;&gt;&#x9;&lt;/span&gt;&lt;span style=&quot;white-space: pre;&quot;&gt;&#x9;&lt;/span&gt;CALL result = quadraticSolver(a, b, c)&lt;br&gt;&lt;/p&gt;&lt;p&gt;&lt;span style=&quot;white-space: pre;&quot;&gt;&#x9;&lt;/span&gt;&lt;span style=&quot;white-space: pre;&quot;&gt;&#x9;&lt;/span&gt;&lt;span style=&quot;white-space: pre;&quot;&gt;&#x9;&lt;/span&gt;CHECK value of result&lt;br&gt;&lt;/p&gt;&lt;p&gt;&lt;span style=&quot;white-space: pre;&quot;&gt;&#x9;&lt;/span&gt;&lt;span style=&quot;white-space: pre;&quot;&gt;&#x9;&lt;/span&gt;&lt;span style=&quot;white-space: pre;&quot;&gt;&#x9;&lt;/span&gt;&lt;span style=&quot;white-space: pre;&quot;&gt;&#x9;&lt;/span&gt;a) IF result == 1, THEN&lt;br&gt;&lt;/p&gt;&lt;p&gt;&lt;span style=&quot;white-space: pre;&quot;&gt;&#x9;&lt;/span&gt;&lt;span style=&quot;white-space: pre;&quot;&gt;&#x9;&lt;/span&gt;&lt;span style=&quot;white-space: pre;&quot;&gt;&#x9;&lt;/span&gt;&lt;span style=&quot;white-space: pre;&quot;&gt;&#x9;&lt;/span&gt;&lt;span style=&quot;white-space: pre;&quot;&gt;&#x9;&lt;/span&gt;DISPLAY &quot;There is no solution.&quot;&lt;br&gt;&lt;/p&gt;&lt;p&gt;&lt;span style=&quot;white-space: pre;&quot;&gt;&#x9;&lt;/span&gt;&lt;span style=&quot;white-space: pre;&quot;&gt;&#x9;&lt;/span&gt;&lt;span style=&quot;white-space: pre;&quot;&gt;&#x9;&lt;/span&gt;&lt;span style=&quot;white-space: pre;&quot;&gt;&#x9;&lt;/span&gt;b) ELSE IF result == 2, THEN&lt;br&gt;&lt;/p&gt;&lt;p&gt;&lt;span style=&quot;white-space: pre;&quot;&gt;&#x9;&lt;/span&gt;&lt;span style=&quot;white-space: pre;&quot;&gt;&#x9;&lt;/span&gt;&lt;span style=&quot;white-space: pre;&quot;&gt;&#x9;&lt;/span&gt;&lt;span style=&quot;white-space: pre;&quot;&gt;&#x9;&lt;/span&gt;&lt;span style=&quot;white-space: pre;&quot;&gt;&#x9;&lt;/span&gt;DISPLAY root1&lt;br&gt;&lt;/p&gt;&lt;p&gt;&lt;span style=&quot;white-space: pre;&quot;&gt;&#x9;&lt;/span&gt;&lt;span style=&quot;white-space: pre;&quot;&gt;&#x9;&lt;/span&gt;&lt;span style=&quot;white-space: pre;&quot;&gt;&#x9;&lt;/span&gt;&lt;span style=&quot;white-space: pre;&quot;&gt;&#x9;&lt;/span&gt;c) ELSE IF result == 3, THEN&lt;br&gt;&lt;/p&gt;&lt;p&gt;&lt;span style=&quot;white-space: pre;&quot;&gt;&#x9;&lt;/span&gt;&lt;span style=&quot;white-space: pre;&quot;&gt;&#x9;&lt;/span&gt;&lt;span style=&quot;white-space: pre;&quot;&gt;&#x9;&lt;/span&gt;&lt;span style=&quot;white-space: pre;&quot;&gt;&#x9;&lt;/span&gt;&lt;span style=&quot;white-space: pre;&quot;&gt;&#x9;&lt;/span&gt;DISPLAY &quot;There are no real roots.&quot;&lt;/p&gt;&lt;p&gt;&lt;span style=&quot;background-color: initial;&quot;&gt;&lt;span style=&quot;white-space: pre;&quot;&gt;&#x9;&lt;/span&gt;&lt;span style=&quot;white-space: pre;&quot;&gt;&#x9;&lt;/span&gt;&lt;span style=&quot;white-space: pre;&quot;&gt;&#x9;&lt;/span&gt;&lt;span style=&quot;white-space: pre;&quot;&gt;&#x9;&lt;/span&gt;d) ELSE IF result == 4, THEN&lt;/span&gt;&lt;/p&gt;&lt;p&gt;&lt;span style=&quot;white-space: pre;&quot;&gt;&#x9;&lt;/span&gt;&lt;span style=&quot;white-space: pre;&quot;&gt;&#x9;&lt;/span&gt;&lt;span style=&quot;white-space: pre;&quot;&gt;&#x9;&lt;/span&gt;&lt;span style=&quot;white-space: pre;&quot;&gt;&#x9;&lt;/span&gt;&lt;span style=&quot;white-space: pre;&quot;&gt;&#x9;&lt;/span&gt;DISPLAY root1 root2&lt;br&gt;&lt;/p&gt;&lt;p&gt;&lt;span style=&quot;white-space: pre;&quot;&gt;&#x9;&lt;/span&gt;&lt;span style=&quot;white-space: pre;&quot;&gt;&#x9;&lt;/span&gt;&lt;span style=&quot;white-space: pre;&quot;&gt;&#x9;&lt;/span&gt;&lt;span style=&quot;white-space: pre;&quot;&gt;&#x9;&lt;/span&gt;&amp;nbsp; &amp;nbsp; ENDIF&lt;br&gt;&lt;/p&gt;&lt;p&gt;&lt;span style=&quot;white-space: pre;&quot;&gt;&#x9;&lt;/span&gt;&lt;span style=&quot;white-space: pre;&quot;&gt;&#x9;&lt;/span&gt;&lt;span style=&quot;white-space: pre;&quot;&gt;&#x9;&lt;/span&gt;BREAK&lt;br&gt;&lt;/p&gt;&lt;p&gt;&lt;span style=&quot;white-space: pre;&quot;&gt;&#x9;&lt;/span&gt;&lt;span style=&quot;white-space: pre;&quot;&gt;&#x9;&lt;/span&gt;4:&amp;nbsp;&lt;br&gt;&lt;/p&gt;&lt;p&gt;&lt;span style=&quot;white-space: pre;&quot;&gt;&#x9;&lt;/span&gt;&lt;span style=&quot;white-space: pre;&quot;&gt;&#x9;&lt;/span&gt;&lt;span style=&quot;white-space: pre;&quot;&gt;&#x9;&lt;/span&gt;BREAK&lt;br&gt;&lt;/p&gt;&lt;p&gt;&lt;span style=&quot;white-space: pre;&quot;&gt;&#x9;&lt;/span&gt;&lt;span style=&quot;white-space: pre;&quot;&gt;&#x9;&lt;/span&gt;default:&lt;br&gt;&lt;/p&gt;&lt;p&gt;&lt;span style=&quot;white-space: pre;&quot;&gt;&#x9;&lt;/span&gt;&lt;span style=&quot;white-space: pre;&quot;&gt;&#x9;&lt;/span&gt;&lt;span style=&quot;white-space: pre;&quot;&gt;&#x9;&lt;/span&gt;DISPLAY &quot;Invalid Option&quot;&lt;br&gt;&lt;/p&gt;&lt;h1 style=&quot;margin-top: 0px;&quot;&gt;STOP&lt;/h1&gt;" style="text;html=1;whiteSpace=wrap;overflow=hidden;rounded=0;" vertex="1" parent="1">
          <mxGeometry x="60" y="890" width="380" height="995" as="geometry" />
        </mxCell>
        <mxCell id="q6b_T3GVfFTgLsL5K9qZ-7" style="edgeStyle=orthogonalEdgeStyle;rounded=0;orthogonalLoop=1;jettySize=auto;html=1;exitX=0.5;exitY=1;exitDx=0;exitDy=0;entryX=0.5;entryY=0;entryDx=0;entryDy=0;" edge="1" parent="1" source="q6b_T3GVfFTgLsL5K9qZ-3" target="q6b_T3GVfFTgLsL5K9qZ-4">
          <mxGeometry relative="1" as="geometry" />
        </mxCell>
        <mxCell id="q6b_T3GVfFTgLsL5K9qZ-3" value="displayMenu()" style="ellipse;whiteSpace=wrap;html=1;fontStyle=1" vertex="1" parent="1">
          <mxGeometry x="630" y="720" width="120" height="60" as="geometry" />
        </mxCell>
        <mxCell id="q6b_T3GVfFTgLsL5K9qZ-4" value="DISPLAY&lt;div&gt;&lt;div&gt;Choose an option&lt;/div&gt;&lt;div&gt;&amp;nbsp; &amp;nbsp; 1. Power Problem Solver&lt;/div&gt;&lt;div&gt;&amp;nbsp; &amp;nbsp; 2. Factorial Problem Solver&lt;/div&gt;&lt;div&gt;&amp;nbsp; &amp;nbsp; 3. Quadratic Problem Solver&lt;/div&gt;&lt;div&gt;&amp;nbsp; &amp;nbsp; 4. Exit&lt;/div&gt;&lt;/div&gt;" style="shape=parallelogram;perimeter=parallelogramPerimeter;whiteSpace=wrap;html=1;fixedSize=1;" vertex="1" parent="1">
          <mxGeometry x="590" y="820" width="200" height="90" as="geometry" />
        </mxCell>
        <mxCell id="q6b_T3GVfFTgLsL5K9qZ-5" value="RETURN" style="strokeWidth=2;html=1;shape=mxgraph.flowchart.terminator;whiteSpace=wrap;" vertex="1" parent="1">
          <mxGeometry x="640" y="940" width="100" height="40" as="geometry" />
        </mxCell>
        <mxCell id="q6b_T3GVfFTgLsL5K9qZ-8" style="edgeStyle=orthogonalEdgeStyle;rounded=0;orthogonalLoop=1;jettySize=auto;html=1;exitX=0.5;exitY=1;exitDx=0;exitDy=0;entryX=0.5;entryY=0;entryDx=0;entryDy=0;entryPerimeter=0;" edge="1" parent="1" source="q6b_T3GVfFTgLsL5K9qZ-4" target="q6b_T3GVfFTgLsL5K9qZ-5">
          <mxGeometry relative="1" as="geometry" />
        </mxCell>
        <mxCell id="q6b_T3GVfFTgLsL5K9qZ-9" value="&lt;h1 style=&quot;margin-top: 0px;&quot;&gt;&lt;u&gt;displayMenu()&lt;/u&gt;&lt;/h1&gt;&lt;h1 style=&quot;margin-top: 0px;&quot;&gt;START&lt;/h1&gt;&lt;div&gt;&lt;span style=&quot;white-space: pre;&quot;&gt;&#x9;&lt;/span&gt;1. DISPLAY &quot;&lt;span style=&quot;text-align: center; background-color: initial;&quot;&gt;Choose an option&lt;/span&gt;&lt;/div&gt;&lt;div style=&quot;text-align: center;&quot;&gt;&amp;nbsp; &amp;nbsp; &amp;nbsp; &amp;nbsp; &amp;nbsp; &amp;nbsp; &amp;nbsp; &amp;nbsp; &amp;nbsp; &amp;nbsp; &amp;nbsp; &amp;nbsp; 1. Power Problem Solver&lt;/div&gt;&lt;div style=&quot;text-align: center;&quot;&gt;&amp;nbsp; &amp;nbsp; &amp;nbsp; &amp;nbsp; &amp;nbsp; &amp;nbsp; &amp;nbsp; &amp;nbsp; &amp;nbsp; &amp;nbsp; &amp;nbsp; &amp;nbsp; &amp;nbsp; &amp;nbsp; 2. Factorial Problem Solver&lt;/div&gt;&lt;div style=&quot;text-align: center;&quot;&gt;&amp;nbsp; &amp;nbsp; &amp;nbsp; &amp;nbsp; &amp;nbsp; &amp;nbsp; &amp;nbsp; &amp;nbsp; &amp;nbsp; &amp;nbsp; &amp;nbsp; &amp;nbsp; &amp;nbsp; &amp;nbsp; &amp;nbsp;3. Quadratic Problem Solve&lt;/div&gt;&lt;div style=&quot;text-align: center;&quot;&gt;&lt;span style=&quot;background-color: initial;&quot;&gt;4. Exit&quot;&lt;/span&gt;&lt;/div&gt;&lt;div style=&quot;text-align: center;&quot;&gt;&lt;h1 style=&quot;text-align: left; margin-top: 0px;&quot;&gt;RETURN&lt;/h1&gt;&lt;/div&gt;" style="text;html=1;whiteSpace=wrap;overflow=hidden;rounded=0;" vertex="1" parent="1">
          <mxGeometry x="800" y="730" width="290" height="220" as="geometry" />
        </mxCell>
        <mxCell id="q6b_T3GVfFTgLsL5K9qZ-13" style="edgeStyle=orthogonalEdgeStyle;rounded=0;orthogonalLoop=1;jettySize=auto;html=1;exitX=0.5;exitY=1;exitDx=0;exitDy=0;entryX=0.5;entryY=0;entryDx=0;entryDy=0;" edge="1" parent="1" source="q6b_T3GVfFTgLsL5K9qZ-11" target="q6b_T3GVfFTgLsL5K9qZ-12">
          <mxGeometry relative="1" as="geometry" />
        </mxCell>
        <mxCell id="q6b_T3GVfFTgLsL5K9qZ-11" value="powerSolver(base, p)" style="ellipse;whiteSpace=wrap;html=1;fontStyle=1" vertex="1" parent="1">
          <mxGeometry x="630" y="1040" width="120" height="60" as="geometry" />
        </mxCell>
        <mxCell id="q6b_T3GVfFTgLsL5K9qZ-12" value="COMPUTE result = pow(base, p)" style="rounded=0;whiteSpace=wrap;html=1;" vertex="1" parent="1">
          <mxGeometry x="630" y="1140" width="120" height="60" as="geometry" />
        </mxCell>
        <mxCell id="q6b_T3GVfFTgLsL5K9qZ-14" value="RETURN result" style="strokeWidth=2;html=1;shape=mxgraph.flowchart.terminator;whiteSpace=wrap;" vertex="1" parent="1">
          <mxGeometry x="640" y="1240" width="100" height="40" as="geometry" />
        </mxCell>
        <mxCell id="q6b_T3GVfFTgLsL5K9qZ-15" style="edgeStyle=orthogonalEdgeStyle;rounded=0;orthogonalLoop=1;jettySize=auto;html=1;exitX=0.5;exitY=1;exitDx=0;exitDy=0;entryX=0.5;entryY=0;entryDx=0;entryDy=0;entryPerimeter=0;" edge="1" parent="1" source="q6b_T3GVfFTgLsL5K9qZ-12" target="q6b_T3GVfFTgLsL5K9qZ-14">
          <mxGeometry relative="1" as="geometry" />
        </mxCell>
        <mxCell id="q6b_T3GVfFTgLsL5K9qZ-16" value="&lt;h1 style=&quot;margin-top: 0px;&quot;&gt;&lt;u&gt;powerSolver(base, p)&lt;/u&gt;&lt;/h1&gt;&lt;h1 style=&quot;margin-top: 0px;&quot;&gt;START&lt;/h1&gt;&lt;div&gt;&lt;span style=&quot;white-space: pre;&quot;&gt;&#x9;&lt;/span&gt;1. COMPUTE result = pow(base, p)&lt;/div&gt;&lt;div&gt;&lt;br&gt;&lt;/div&gt;&lt;div style=&quot;text-align: center;&quot;&gt;&lt;h1 style=&quot;text-align: left; margin-top: 0px;&quot;&gt;RETURN result&lt;/h1&gt;&lt;/div&gt;" style="text;html=1;whiteSpace=wrap;overflow=hidden;rounded=0;" vertex="1" parent="1">
          <mxGeometry x="780" y="1070" width="320" height="170" as="geometry" />
        </mxCell>
        <mxCell id="q6b_T3GVfFTgLsL5K9qZ-19" style="edgeStyle=orthogonalEdgeStyle;rounded=0;orthogonalLoop=1;jettySize=auto;html=1;exitX=0.5;exitY=1;exitDx=0;exitDy=0;entryX=0.5;entryY=0;entryDx=0;entryDy=0;" edge="1" parent="1" source="q6b_T3GVfFTgLsL5K9qZ-17" target="q6b_T3GVfFTgLsL5K9qZ-18">
          <mxGeometry relative="1" as="geometry" />
        </mxCell>
        <mxCell id="q6b_T3GVfFTgLsL5K9qZ-17" value="factorialSolver(num)" style="ellipse;whiteSpace=wrap;html=1;fontStyle=1" vertex="1" parent="1">
          <mxGeometry x="630" y="1350" width="120" height="60" as="geometry" />
        </mxCell>
        <mxCell id="q6b_T3GVfFTgLsL5K9qZ-21" style="edgeStyle=orthogonalEdgeStyle;rounded=0;orthogonalLoop=1;jettySize=auto;html=1;exitX=0.5;exitY=1;exitDx=0;exitDy=0;entryX=0.5;entryY=0;entryDx=0;entryDy=0;" edge="1" parent="1" source="q6b_T3GVfFTgLsL5K9qZ-18" target="q6b_T3GVfFTgLsL5K9qZ-20">
          <mxGeometry relative="1" as="geometry" />
        </mxCell>
        <mxCell id="q6b_T3GVfFTgLsL5K9qZ-18" value="INITIALIZE result = 1, i = 1" style="shape=hexagon;perimeter=hexagonPerimeter2;whiteSpace=wrap;html=1;fixedSize=1;" vertex="1" parent="1">
          <mxGeometry x="600" y="1450" width="180" height="40" as="geometry" />
        </mxCell>
        <mxCell id="q6b_T3GVfFTgLsL5K9qZ-30" style="edgeStyle=orthogonalEdgeStyle;rounded=0;orthogonalLoop=1;jettySize=auto;html=1;exitX=1;exitY=0.5;exitDx=0;exitDy=0;entryX=0;entryY=0.5;entryDx=0;entryDy=0;" edge="1" parent="1" source="q6b_T3GVfFTgLsL5K9qZ-20" target="q6b_T3GVfFTgLsL5K9qZ-22">
          <mxGeometry relative="1" as="geometry" />
        </mxCell>
        <mxCell id="q6b_T3GVfFTgLsL5K9qZ-20" value="i &amp;lt;= num&lt;div&gt;?&lt;/div&gt;" style="rhombus;whiteSpace=wrap;html=1;" vertex="1" parent="1">
          <mxGeometry x="650" y="1520" width="80" height="80" as="geometry" />
        </mxCell>
        <mxCell id="q6b_T3GVfFTgLsL5K9qZ-31" style="edgeStyle=orthogonalEdgeStyle;rounded=0;orthogonalLoop=1;jettySize=auto;html=1;exitX=1;exitY=0.5;exitDx=0;exitDy=0;entryX=0;entryY=0.5;entryDx=0;entryDy=0;" edge="1" parent="1" source="q6b_T3GVfFTgLsL5K9qZ-22" target="q6b_T3GVfFTgLsL5K9qZ-24">
          <mxGeometry relative="1" as="geometry" />
        </mxCell>
        <mxCell id="q6b_T3GVfFTgLsL5K9qZ-22" value="COMPUTE&amp;nbsp;&lt;div&gt;result *= 1&lt;/div&gt;" style="rounded=0;whiteSpace=wrap;html=1;" vertex="1" parent="1">
          <mxGeometry x="780" y="1540" width="120" height="40" as="geometry" />
        </mxCell>
        <mxCell id="q6b_T3GVfFTgLsL5K9qZ-24" value="i++" style="rounded=0;whiteSpace=wrap;html=1;" vertex="1" parent="1">
          <mxGeometry x="945" y="1540" width="50" height="40" as="geometry" />
        </mxCell>
        <mxCell id="q6b_T3GVfFTgLsL5K9qZ-29" value="YES" style="text;html=1;align=center;verticalAlign=middle;whiteSpace=wrap;rounded=0;" vertex="1" parent="1">
          <mxGeometry x="720" y="1530" width="60" height="30" as="geometry" />
        </mxCell>
        <mxCell id="q6b_T3GVfFTgLsL5K9qZ-32" value="" style="endArrow=classic;html=1;rounded=0;" edge="1" parent="1">
          <mxGeometry width="50" height="50" relative="1" as="geometry">
            <mxPoint x="1020" y="1500" as="sourcePoint" />
            <mxPoint x="690" y="1500" as="targetPoint" />
          </mxGeometry>
        </mxCell>
        <mxCell id="q6b_T3GVfFTgLsL5K9qZ-33" value="" style="endArrow=none;html=1;rounded=0;" edge="1" parent="1">
          <mxGeometry width="50" height="50" relative="1" as="geometry">
            <mxPoint x="1020" y="1560" as="sourcePoint" />
            <mxPoint x="1020" y="1500" as="targetPoint" />
          </mxGeometry>
        </mxCell>
        <mxCell id="q6b_T3GVfFTgLsL5K9qZ-34" value="" style="endArrow=none;html=1;rounded=0;exitX=1;exitY=0.5;exitDx=0;exitDy=0;" edge="1" parent="1" source="q6b_T3GVfFTgLsL5K9qZ-24">
          <mxGeometry width="50" height="50" relative="1" as="geometry">
            <mxPoint x="770" y="1640" as="sourcePoint" />
            <mxPoint x="1020" y="1560" as="targetPoint" />
          </mxGeometry>
        </mxCell>
        <mxCell id="q6b_T3GVfFTgLsL5K9qZ-35" value="NO" style="text;html=1;align=center;verticalAlign=middle;whiteSpace=wrap;rounded=0;" vertex="1" parent="1">
          <mxGeometry x="680" y="1600" width="60" height="30" as="geometry" />
        </mxCell>
        <mxCell id="q6b_T3GVfFTgLsL5K9qZ-36" value="RETURN result" style="strokeWidth=2;html=1;shape=mxgraph.flowchart.terminator;whiteSpace=wrap;" vertex="1" parent="1">
          <mxGeometry x="640" y="1650" width="100" height="40" as="geometry" />
        </mxCell>
        <mxCell id="q6b_T3GVfFTgLsL5K9qZ-37" style="edgeStyle=orthogonalEdgeStyle;rounded=0;orthogonalLoop=1;jettySize=auto;html=1;exitX=0.5;exitY=1;exitDx=0;exitDy=0;entryX=0.5;entryY=0;entryDx=0;entryDy=0;entryPerimeter=0;" edge="1" parent="1" source="q6b_T3GVfFTgLsL5K9qZ-20" target="q6b_T3GVfFTgLsL5K9qZ-36">
          <mxGeometry relative="1" as="geometry" />
        </mxCell>
        <mxCell id="q6b_T3GVfFTgLsL5K9qZ-38" value="&lt;h1 style=&quot;margin-top: 0px;&quot;&gt;&lt;u&gt;factorialSolver(num)&lt;/u&gt;&lt;/h1&gt;&lt;h1 style=&quot;margin-top: 0px;&quot;&gt;START&lt;/h1&gt;&lt;div&gt;&lt;span style=&quot;white-space: pre;&quot;&gt;&#x9;&lt;/span&gt;1. INITIALIZE result = 1&lt;/div&gt;&lt;div&gt;&lt;span style=&quot;white-space: pre;&quot;&gt;&#x9;&lt;/span&gt;2. FOR (i = 1; i &amp;lt;= num; i++)&lt;br&gt;&lt;/div&gt;&lt;div&gt;&lt;span style=&quot;white-space: pre;&quot;&gt;&#x9;&lt;/span&gt;&lt;span style=&quot;white-space: pre;&quot;&gt;&#x9;&lt;/span&gt;COMPUTE result *= i&lt;br&gt;&lt;/div&gt;&lt;div&gt;&lt;br&gt;&lt;/div&gt;&lt;div style=&quot;text-align: center;&quot;&gt;&lt;h1 style=&quot;text-align: left; margin-top: 0px;&quot;&gt;RETURN result&lt;/h1&gt;&lt;/div&gt;" style="text;html=1;whiteSpace=wrap;overflow=hidden;rounded=0;" vertex="1" parent="1">
          <mxGeometry x="1045" y="1350" width="320" height="200" as="geometry" />
        </mxCell>
        <mxCell id="q6b_T3GVfFTgLsL5K9qZ-41" style="edgeStyle=orthogonalEdgeStyle;rounded=0;orthogonalLoop=1;jettySize=auto;html=1;exitX=0.5;exitY=1;exitDx=0;exitDy=0;entryX=0.5;entryY=0;entryDx=0;entryDy=0;" edge="1" parent="1" source="q6b_T3GVfFTgLsL5K9qZ-39" target="q6b_T3GVfFTgLsL5K9qZ-40">
          <mxGeometry relative="1" as="geometry" />
        </mxCell>
        <mxCell id="q6b_T3GVfFTgLsL5K9qZ-39" value="quadraticSolver(a, b, c)" style="ellipse;whiteSpace=wrap;html=1;fontStyle=1" vertex="1" parent="1">
          <mxGeometry x="630" y="1760" width="170" height="60" as="geometry" />
        </mxCell>
        <mxCell id="q6b_T3GVfFTgLsL5K9qZ-43" style="edgeStyle=orthogonalEdgeStyle;rounded=0;orthogonalLoop=1;jettySize=auto;html=1;exitX=0.5;exitY=1;exitDx=0;exitDy=0;entryX=0.5;entryY=0;entryDx=0;entryDy=0;" edge="1" parent="1" source="q6b_T3GVfFTgLsL5K9qZ-40" target="q6b_T3GVfFTgLsL5K9qZ-42">
          <mxGeometry relative="1" as="geometry" />
        </mxCell>
        <mxCell id="q6b_T3GVfFTgLsL5K9qZ-40" value="INITIALIZE returnFlag = 0" style="shape=hexagon;perimeter=hexagonPerimeter2;whiteSpace=wrap;html=1;fixedSize=1;" vertex="1" parent="1">
          <mxGeometry x="625" y="1850" width="170" height="40" as="geometry" />
        </mxCell>
        <mxCell id="q6b_T3GVfFTgLsL5K9qZ-46" style="edgeStyle=orthogonalEdgeStyle;rounded=0;orthogonalLoop=1;jettySize=auto;html=1;exitX=1;exitY=0.5;exitDx=0;exitDy=0;entryX=0;entryY=0.5;entryDx=0;entryDy=0;" edge="1" parent="1" source="q6b_T3GVfFTgLsL5K9qZ-42" target="q6b_T3GVfFTgLsL5K9qZ-44">
          <mxGeometry relative="1" as="geometry" />
        </mxCell>
        <mxCell id="q6b_T3GVfFTgLsL5K9qZ-50" style="edgeStyle=orthogonalEdgeStyle;rounded=0;orthogonalLoop=1;jettySize=auto;html=1;exitX=0.5;exitY=1;exitDx=0;exitDy=0;entryX=0.5;entryY=0;entryDx=0;entryDy=0;" edge="1" parent="1" source="q6b_T3GVfFTgLsL5K9qZ-42" target="q6b_T3GVfFTgLsL5K9qZ-49">
          <mxGeometry relative="1" as="geometry" />
        </mxCell>
        <mxCell id="q6b_T3GVfFTgLsL5K9qZ-42" value="a == 0 &amp;amp;&amp;amp; b == 0&lt;div&gt;?&lt;/div&gt;" style="rhombus;whiteSpace=wrap;html=1;" vertex="1" parent="1">
          <mxGeometry x="630" y="1920" width="160" height="70" as="geometry" />
        </mxCell>
        <mxCell id="q6b_T3GVfFTgLsL5K9qZ-75" style="edgeStyle=orthogonalEdgeStyle;rounded=0;orthogonalLoop=1;jettySize=auto;html=1;exitX=1;exitY=0.5;exitDx=0;exitDy=0;entryX=0;entryY=0.5;entryDx=0;entryDy=0;" edge="1" parent="1" source="q6b_T3GVfFTgLsL5K9qZ-44" target="q6b_T3GVfFTgLsL5K9qZ-74">
          <mxGeometry relative="1" as="geometry" />
        </mxCell>
        <mxCell id="q6b_T3GVfFTgLsL5K9qZ-44" value="SET returnFlag = 1" style="rounded=0;whiteSpace=wrap;html=1;" vertex="1" parent="1">
          <mxGeometry x="840" y="1940" width="125" height="30" as="geometry" />
        </mxCell>
        <mxCell id="q6b_T3GVfFTgLsL5K9qZ-47" value="YES" style="text;html=1;align=center;verticalAlign=middle;whiteSpace=wrap;rounded=0;" vertex="1" parent="1">
          <mxGeometry x="780" y="1930" width="60" height="30" as="geometry" />
        </mxCell>
        <mxCell id="q6b_T3GVfFTgLsL5K9qZ-48" value="NO" style="text;html=1;align=center;verticalAlign=middle;whiteSpace=wrap;rounded=0;" vertex="1" parent="1">
          <mxGeometry x="700" y="1990" width="60" height="30" as="geometry" />
        </mxCell>
        <mxCell id="q6b_T3GVfFTgLsL5K9qZ-53" style="edgeStyle=orthogonalEdgeStyle;rounded=0;orthogonalLoop=1;jettySize=auto;html=1;exitX=1;exitY=0.5;exitDx=0;exitDy=0;entryX=0;entryY=0.5;entryDx=0;entryDy=0;" edge="1" parent="1" source="q6b_T3GVfFTgLsL5K9qZ-49" target="q6b_T3GVfFTgLsL5K9qZ-52">
          <mxGeometry relative="1" as="geometry" />
        </mxCell>
        <mxCell id="q6b_T3GVfFTgLsL5K9qZ-57" style="edgeStyle=orthogonalEdgeStyle;rounded=0;orthogonalLoop=1;jettySize=auto;html=1;exitX=0.5;exitY=1;exitDx=0;exitDy=0;entryX=0.5;entryY=0;entryDx=0;entryDy=0;" edge="1" parent="1" source="q6b_T3GVfFTgLsL5K9qZ-49" target="q6b_T3GVfFTgLsL5K9qZ-56">
          <mxGeometry relative="1" as="geometry" />
        </mxCell>
        <mxCell id="q6b_T3GVfFTgLsL5K9qZ-49" value="a == 0&lt;div&gt;?&lt;/div&gt;" style="rhombus;whiteSpace=wrap;html=1;" vertex="1" parent="1">
          <mxGeometry x="670" y="2020" width="80" height="60" as="geometry" />
        </mxCell>
        <mxCell id="q6b_T3GVfFTgLsL5K9qZ-78" style="edgeStyle=orthogonalEdgeStyle;rounded=0;orthogonalLoop=1;jettySize=auto;html=1;exitX=1;exitY=0.5;exitDx=0;exitDy=0;entryX=0;entryY=0.5;entryDx=0;entryDy=0;" edge="1" parent="1" source="q6b_T3GVfFTgLsL5K9qZ-51" target="q6b_T3GVfFTgLsL5K9qZ-77">
          <mxGeometry relative="1" as="geometry" />
        </mxCell>
        <mxCell id="q6b_T3GVfFTgLsL5K9qZ-51" value="SET returnFlag = 2" style="rounded=0;whiteSpace=wrap;html=1;" vertex="1" parent="1">
          <mxGeometry x="960" y="2035" width="125" height="30" as="geometry" />
        </mxCell>
        <mxCell id="q6b_T3GVfFTgLsL5K9qZ-54" style="edgeStyle=orthogonalEdgeStyle;rounded=0;orthogonalLoop=1;jettySize=auto;html=1;exitX=1;exitY=0.5;exitDx=0;exitDy=0;entryX=0;entryY=0.5;entryDx=0;entryDy=0;" edge="1" parent="1" source="q6b_T3GVfFTgLsL5K9qZ-52" target="q6b_T3GVfFTgLsL5K9qZ-51">
          <mxGeometry relative="1" as="geometry" />
        </mxCell>
        <mxCell id="q6b_T3GVfFTgLsL5K9qZ-52" value="COMPUTE&lt;div&gt;root1 = -c/b&lt;/div&gt;" style="rounded=0;whiteSpace=wrap;html=1;" vertex="1" parent="1">
          <mxGeometry x="795" y="2030" width="110" height="40" as="geometry" />
        </mxCell>
        <mxCell id="q6b_T3GVfFTgLsL5K9qZ-55" value="YES" style="text;html=1;align=center;verticalAlign=middle;whiteSpace=wrap;rounded=0;" vertex="1" parent="1">
          <mxGeometry x="740" y="2020" width="60" height="30" as="geometry" />
        </mxCell>
        <mxCell id="q6b_T3GVfFTgLsL5K9qZ-60" style="edgeStyle=orthogonalEdgeStyle;rounded=0;orthogonalLoop=1;jettySize=auto;html=1;exitX=0.5;exitY=1;exitDx=0;exitDy=0;entryX=0.5;entryY=0;entryDx=0;entryDy=0;" edge="1" parent="1" source="q6b_T3GVfFTgLsL5K9qZ-56" target="q6b_T3GVfFTgLsL5K9qZ-59">
          <mxGeometry relative="1" as="geometry" />
        </mxCell>
        <mxCell id="q6b_T3GVfFTgLsL5K9qZ-56" value="COMPUTE&lt;div&gt;discriminant = (b*b) - (4*a*c)&lt;/div&gt;" style="rounded=0;whiteSpace=wrap;html=1;" vertex="1" parent="1">
          <mxGeometry x="625" y="2110" width="170" height="40" as="geometry" />
        </mxCell>
        <mxCell id="q6b_T3GVfFTgLsL5K9qZ-58" value="NO" style="text;html=1;align=center;verticalAlign=middle;whiteSpace=wrap;rounded=0;" vertex="1" parent="1">
          <mxGeometry x="710" y="2080" width="60" height="30" as="geometry" />
        </mxCell>
        <mxCell id="q6b_T3GVfFTgLsL5K9qZ-62" style="edgeStyle=orthogonalEdgeStyle;rounded=0;orthogonalLoop=1;jettySize=auto;html=1;exitX=1;exitY=0.5;exitDx=0;exitDy=0;entryX=0;entryY=0.5;entryDx=0;entryDy=0;" edge="1" parent="1" source="q6b_T3GVfFTgLsL5K9qZ-59" target="q6b_T3GVfFTgLsL5K9qZ-61">
          <mxGeometry relative="1" as="geometry" />
        </mxCell>
        <mxCell id="q6b_T3GVfFTgLsL5K9qZ-65" style="edgeStyle=orthogonalEdgeStyle;rounded=0;orthogonalLoop=1;jettySize=auto;html=1;exitX=0.5;exitY=1;exitDx=0;exitDy=0;entryX=0.5;entryY=0;entryDx=0;entryDy=0;" edge="1" parent="1" source="q6b_T3GVfFTgLsL5K9qZ-59" target="q6b_T3GVfFTgLsL5K9qZ-64">
          <mxGeometry relative="1" as="geometry" />
        </mxCell>
        <mxCell id="q6b_T3GVfFTgLsL5K9qZ-59" value="discrminant &amp;lt; 0&lt;div&gt;?&lt;/div&gt;" style="rhombus;whiteSpace=wrap;html=1;" vertex="1" parent="1">
          <mxGeometry x="640" y="2190" width="140" height="60" as="geometry" />
        </mxCell>
        <mxCell id="q6b_T3GVfFTgLsL5K9qZ-80" style="edgeStyle=orthogonalEdgeStyle;rounded=0;orthogonalLoop=1;jettySize=auto;html=1;exitX=1;exitY=0.5;exitDx=0;exitDy=0;entryX=0;entryY=0.5;entryDx=0;entryDy=0;" edge="1" parent="1" source="q6b_T3GVfFTgLsL5K9qZ-61" target="q6b_T3GVfFTgLsL5K9qZ-79">
          <mxGeometry relative="1" as="geometry" />
        </mxCell>
        <mxCell id="q6b_T3GVfFTgLsL5K9qZ-61" value="SET returnFlag = 3" style="rounded=0;whiteSpace=wrap;html=1;" vertex="1" parent="1">
          <mxGeometry x="835" y="2205" width="125" height="30" as="geometry" />
        </mxCell>
        <mxCell id="q6b_T3GVfFTgLsL5K9qZ-63" value="YES" style="text;html=1;align=center;verticalAlign=middle;whiteSpace=wrap;rounded=0;" vertex="1" parent="1">
          <mxGeometry x="770" y="2190" width="60" height="30" as="geometry" />
        </mxCell>
        <mxCell id="q6b_T3GVfFTgLsL5K9qZ-69" style="edgeStyle=orthogonalEdgeStyle;rounded=0;orthogonalLoop=1;jettySize=auto;html=1;exitX=0.5;exitY=1;exitDx=0;exitDy=0;entryX=0.5;entryY=0;entryDx=0;entryDy=0;" edge="1" parent="1" source="q6b_T3GVfFTgLsL5K9qZ-64" target="q6b_T3GVfFTgLsL5K9qZ-67">
          <mxGeometry relative="1" as="geometry" />
        </mxCell>
        <mxCell id="q6b_T3GVfFTgLsL5K9qZ-64" value="SET returnFlag = 4" style="rounded=0;whiteSpace=wrap;html=1;" vertex="1" parent="1">
          <mxGeometry x="647.5" y="2290" width="125" height="30" as="geometry" />
        </mxCell>
        <mxCell id="q6b_T3GVfFTgLsL5K9qZ-66" value="NO" style="text;html=1;align=center;verticalAlign=middle;whiteSpace=wrap;rounded=0;" vertex="1" parent="1">
          <mxGeometry x="700" y="2250" width="60" height="30" as="geometry" />
        </mxCell>
        <mxCell id="q6b_T3GVfFTgLsL5K9qZ-70" style="edgeStyle=orthogonalEdgeStyle;rounded=0;orthogonalLoop=1;jettySize=auto;html=1;exitX=0.5;exitY=1;exitDx=0;exitDy=0;entryX=0.5;entryY=0;entryDx=0;entryDy=0;" edge="1" parent="1" source="q6b_T3GVfFTgLsL5K9qZ-67" target="q6b_T3GVfFTgLsL5K9qZ-68">
          <mxGeometry relative="1" as="geometry" />
        </mxCell>
        <mxCell id="q6b_T3GVfFTgLsL5K9qZ-67" value="COMPUTE&lt;div&gt;root1 = (-b + sqrt(discriminant)) /(2*a)&lt;/div&gt;" style="rounded=0;whiteSpace=wrap;html=1;" vertex="1" parent="1">
          <mxGeometry x="600" y="2350" width="220" height="40" as="geometry" />
        </mxCell>
        <mxCell id="q6b_T3GVfFTgLsL5K9qZ-82" style="edgeStyle=orthogonalEdgeStyle;rounded=0;orthogonalLoop=1;jettySize=auto;html=1;exitX=0.5;exitY=1;exitDx=0;exitDy=0;entryX=0.5;entryY=0;entryDx=0;entryDy=0;" edge="1" parent="1" source="q6b_T3GVfFTgLsL5K9qZ-68" target="q6b_T3GVfFTgLsL5K9qZ-81">
          <mxGeometry relative="1" as="geometry" />
        </mxCell>
        <mxCell id="q6b_T3GVfFTgLsL5K9qZ-68" value="COMPUTE&lt;div&gt;root2 = (-b - sqrt(discriminant)) /(2*a)&lt;/div&gt;" style="rounded=0;whiteSpace=wrap;html=1;" vertex="1" parent="1">
          <mxGeometry x="600" y="2420" width="220" height="40" as="geometry" />
        </mxCell>
        <mxCell id="q6b_T3GVfFTgLsL5K9qZ-71" value="&lt;font style=&quot;font-size: 23px;&quot;&gt;A&lt;/font&gt;" style="ellipse;whiteSpace=wrap;html=1;aspect=fixed;" vertex="1" parent="1">
          <mxGeometry x="1090" y="1760" width="50" height="50" as="geometry" />
        </mxCell>
        <mxCell id="q6b_T3GVfFTgLsL5K9qZ-72" value="RETURN returnFlag" style="strokeWidth=2;html=1;shape=mxgraph.flowchart.terminator;whiteSpace=wrap;" vertex="1" parent="1">
          <mxGeometry x="1065" y="1850" width="100" height="40" as="geometry" />
        </mxCell>
        <mxCell id="q6b_T3GVfFTgLsL5K9qZ-73" style="edgeStyle=orthogonalEdgeStyle;rounded=0;orthogonalLoop=1;jettySize=auto;html=1;exitX=0.5;exitY=1;exitDx=0;exitDy=0;entryX=0.5;entryY=0;entryDx=0;entryDy=0;entryPerimeter=0;" edge="1" parent="1" source="q6b_T3GVfFTgLsL5K9qZ-71" target="q6b_T3GVfFTgLsL5K9qZ-72">
          <mxGeometry relative="1" as="geometry" />
        </mxCell>
        <mxCell id="q6b_T3GVfFTgLsL5K9qZ-74" value="&lt;font style=&quot;font-size: 23px;&quot;&gt;A&lt;/font&gt;" style="ellipse;whiteSpace=wrap;html=1;aspect=fixed;" vertex="1" parent="1">
          <mxGeometry x="1015" y="1930" width="50" height="50" as="geometry" />
        </mxCell>
        <mxCell id="q6b_T3GVfFTgLsL5K9qZ-77" value="&lt;font style=&quot;font-size: 23px;&quot;&gt;A&lt;/font&gt;" style="ellipse;whiteSpace=wrap;html=1;aspect=fixed;" vertex="1" parent="1">
          <mxGeometry x="1140" y="2025" width="50" height="50" as="geometry" />
        </mxCell>
        <mxCell id="q6b_T3GVfFTgLsL5K9qZ-79" value="&lt;font style=&quot;font-size: 23px;&quot;&gt;A&lt;/font&gt;" style="ellipse;whiteSpace=wrap;html=1;aspect=fixed;" vertex="1" parent="1">
          <mxGeometry x="995" y="2195" width="50" height="50" as="geometry" />
        </mxCell>
        <mxCell id="q6b_T3GVfFTgLsL5K9qZ-81" value="&lt;font style=&quot;font-size: 23px;&quot;&gt;A&lt;/font&gt;" style="ellipse;whiteSpace=wrap;html=1;aspect=fixed;" vertex="1" parent="1">
          <mxGeometry x="685" y="2500" width="50" height="50" as="geometry" />
        </mxCell>
        <mxCell id="q6b_T3GVfFTgLsL5K9qZ-83" value="&lt;h1 style=&quot;margin-top: 0px;&quot;&gt;&lt;u&gt;quadraticSolver(a, b, c)&lt;/u&gt;&lt;/h1&gt;&lt;h1 style=&quot;margin-top: 0px;&quot;&gt;START&lt;/h1&gt;&lt;div&gt;&lt;span style=&quot;white-space: pre;&quot;&gt;&#x9;&lt;/span&gt;1. INITIALIZE returnFlag = 0&lt;/div&gt;&lt;div&gt;&lt;span style=&quot;white-space: pre;&quot;&gt;&#x9;&lt;/span&gt;2. CHECK value of a, b ,c&lt;br&gt;&lt;/div&gt;&lt;div&gt;&lt;span style=&quot;white-space: pre;&quot;&gt;&#x9;&lt;/span&gt;&lt;span style=&quot;white-space: pre;&quot;&gt;&#x9;&lt;/span&gt;a) IF a == 0 &amp;amp;&amp;amp; b == 0, THEN&lt;br&gt;&lt;/div&gt;&lt;div&gt;&lt;span style=&quot;white-space: pre;&quot;&gt;&#x9;&lt;/span&gt;&lt;span style=&quot;white-space: pre;&quot;&gt;&#x9;&lt;/span&gt;&lt;span style=&quot;white-space: pre;&quot;&gt;&#x9;&lt;/span&gt;SET returnFlag = 1&lt;br&gt;&lt;/div&gt;&lt;div&gt;&lt;span style=&quot;white-space: pre;&quot;&gt;&#x9;&lt;/span&gt;&lt;span style=&quot;white-space: pre;&quot;&gt;&#x9;&lt;/span&gt;b) ELSE IF a == 0, THEN&lt;/div&gt;&lt;div&gt;&lt;span style=&quot;white-space: pre;&quot;&gt;&#x9;&lt;/span&gt;&lt;span style=&quot;white-space: pre;&quot;&gt;&#x9;&lt;/span&gt;&lt;span style=&quot;white-space: pre;&quot;&gt;&#x9;&lt;/span&gt;COMPUTE root1 = -c/b&lt;br&gt;&lt;/div&gt;&lt;div&gt;&lt;span style=&quot;white-space: pre;&quot;&gt;&#x9;&lt;/span&gt;&lt;span style=&quot;white-space: pre;&quot;&gt;&#x9;&lt;/span&gt;&lt;span style=&quot;white-space: pre;&quot;&gt;&#x9;&lt;/span&gt;SET returnFlag = 2&lt;br&gt;&lt;/div&gt;&lt;div&gt;&lt;span style=&quot;white-space: pre;&quot;&gt;&#x9;&lt;/span&gt;&lt;span style=&quot;white-space: pre;&quot;&gt;&#x9;&lt;/span&gt;c) ELSE&amp;nbsp;&lt;br&gt;&lt;/div&gt;&lt;div&gt;&lt;span style=&quot;white-space: pre;&quot;&gt;&#x9;&lt;/span&gt;&lt;span style=&quot;white-space: pre;&quot;&gt;&#x9;&lt;/span&gt;&lt;span style=&quot;white-space: pre;&quot;&gt;&#x9;&lt;/span&gt;COMPUTE discriminant = (b*b) - (4*a*c)&lt;br&gt;&lt;/div&gt;&lt;div&gt;&lt;span style=&quot;white-space: pre;&quot;&gt;&#x9;&lt;/span&gt;&lt;span style=&quot;white-space: pre;&quot;&gt;&#x9;&lt;/span&gt;&lt;span style=&quot;white-space: pre;&quot;&gt;&#x9;&lt;/span&gt;CHECK value of discriminant&lt;br&gt;&lt;/div&gt;&lt;div&gt;&lt;span style=&quot;white-space: pre;&quot;&gt;&#x9;&lt;/span&gt;&lt;span style=&quot;white-space: pre;&quot;&gt;&#x9;&lt;/span&gt;&lt;span style=&quot;white-space: pre;&quot;&gt;&#x9;&lt;/span&gt;&lt;span style=&quot;white-space: pre;&quot;&gt;&#x9;&lt;/span&gt;c.1) IF discriminant &amp;lt; 0, THEN&lt;br&gt;&lt;/div&gt;&lt;div&gt;&lt;span style=&quot;white-space: pre;&quot;&gt;&#x9;&lt;/span&gt;&lt;span style=&quot;white-space: pre;&quot;&gt;&#x9;&lt;/span&gt;&lt;span style=&quot;white-space: pre;&quot;&gt;&#x9;&lt;/span&gt;&lt;span style=&quot;white-space: pre;&quot;&gt;&#x9;&lt;span style=&quot;white-space: pre;&quot;&gt;&#x9;&lt;/span&gt;&lt;span style=&quot;white-space: pre;&quot;&gt;&#x9;&lt;/span&gt;SET returnFlag = 3&lt;/span&gt;&lt;br&gt;&lt;/div&gt;&lt;div&gt;&lt;span style=&quot;white-space: pre;&quot;&gt;&#x9;&lt;/span&gt;&lt;span style=&quot;white-space: pre;&quot;&gt;&#x9;&lt;/span&gt;&lt;span style=&quot;white-space: pre;&quot;&gt;&#x9;&lt;/span&gt;&lt;span style=&quot;white-space: pre;&quot;&gt;&#x9;&lt;/span&gt;c.2) ELSE&amp;nbsp;&lt;br&gt;&lt;/div&gt;&lt;div&gt;&lt;span style=&quot;white-space: pre;&quot;&gt;&#x9;&lt;/span&gt;&lt;span style=&quot;white-space: pre;&quot;&gt;&#x9;&lt;/span&gt;&lt;span style=&quot;white-space: pre;&quot;&gt;&#x9;&lt;/span&gt;&lt;span style=&quot;white-space: pre;&quot;&gt;&#x9;&lt;/span&gt;&lt;span style=&quot;white-space: pre;&quot;&gt;&#x9;&lt;/span&gt;&lt;span style=&quot;white-space: pre;&quot;&gt;&#x9;&lt;/span&gt;SET returnFlag = 4&lt;br&gt;&lt;/div&gt;&lt;div&gt;&lt;span style=&quot;white-space: pre;&quot;&gt;&#x9;&lt;/span&gt;&lt;span style=&quot;white-space: pre;&quot;&gt;&#x9;&lt;/span&gt;&lt;span style=&quot;white-space: pre;&quot;&gt;&#x9;&lt;/span&gt;&lt;span style=&quot;white-space: pre;&quot;&gt;&#x9;&lt;/span&gt;&lt;span style=&quot;white-space: pre;&quot;&gt;&#x9;&lt;/span&gt;&lt;span style=&quot;white-space: pre;&quot;&gt;&#x9;&lt;/span&gt;COMPUTE root1 (-b + sqrt(discriminant)) / (2*a)&lt;br&gt;&lt;/div&gt;&lt;div&gt;&lt;span style=&quot;white-space: pre;&quot;&gt;&#x9;&lt;/span&gt;&lt;span style=&quot;white-space: pre;&quot;&gt;&#x9;&lt;/span&gt;&lt;span style=&quot;white-space: pre;&quot;&gt;&#x9;&lt;/span&gt;&lt;span style=&quot;white-space: pre;&quot;&gt;&#x9;&lt;/span&gt;&lt;span style=&quot;white-space: pre;&quot;&gt;&#x9;&lt;/span&gt;&lt;span style=&quot;white-space: pre;&quot;&gt;&#x9;&lt;/span&gt;COMPUTE root2 (-b - sqrt(discriminant)) / (2*a)&lt;br&gt;&lt;/div&gt;&lt;div&gt;&lt;span style=&quot;white-space: pre;&quot;&gt;&#x9;&lt;/span&gt;&lt;span style=&quot;white-space: pre;&quot;&gt;&#x9;&lt;/span&gt;&lt;span style=&quot;white-space: pre;&quot;&gt;&#x9;&lt;/span&gt;&lt;span style=&quot;white-space: pre;&quot;&gt;&#x9;&lt;/span&gt;&lt;span style=&quot;white-space: pre;&quot;&gt;&#x9;&lt;/span&gt;ENDIF&lt;br&gt;&lt;/div&gt;&lt;div&gt;&lt;span style=&quot;white-space: pre;&quot;&gt;&#x9;&lt;/span&gt;&lt;span style=&quot;white-space: pre;&quot;&gt;&#x9;&lt;/span&gt;&amp;nbsp; &amp;nbsp;ENDIF&lt;br&gt;&lt;/div&gt;&lt;div&gt;&lt;br&gt;&lt;/div&gt;&lt;div&gt;&lt;br&gt;&lt;/div&gt;&lt;div style=&quot;text-align: center;&quot;&gt;&lt;h1 style=&quot;text-align: left; margin-top: 0px;&quot;&gt;RETURN returnFlag&lt;/h1&gt;&lt;/div&gt;" style="text;html=1;whiteSpace=wrap;overflow=hidden;rounded=0;" vertex="1" parent="1">
          <mxGeometry x="1275" y="1770" width="545" height="500" as="geometry" />
        </mxCell>
      </root>
    </mxGraphModel>
  </diagram>
</mxfile>
